Comme-Light.ufo
<glyph name="exclam" format="1">
  <advance width="642"/>
  <unicode hex="0021"/>
  <outline>
    <contour>
      <point x="285" y="421" type="line"/>
      <point x="341" y="421" type="line"/>
      <point x="392" y="1370" type="line"/>
      <point x="392" y="1472" type="line"/>
      <point x="229" y="1472" type="line"/>
      <point x="229" y="1370" type="line"/>
    </contour>
    <contour>
      <point x="316" y="-15" type="curve" smooth="yes"/>
      <point x="395" y="-15"/>
      <point x="423" y="40"/>
      <point x="423" y="94" type="curve" smooth="yes"/>
      <point x="423" y="146"/>
      <point x="395" y="202"/>
      <point x="316" y="202" type="curve" smooth="yes"/>
      <point x="237" y="202"/>
      <point x="209" y="146"/>
      <point x="209" y="94" type="curve" smooth="yes"/>
      <point x="209" y="43"/>
      <point x="237" y="-15"/>
    </contour>
  </outline>
</glyph>
<glyph name="quotedbl" format="1">
  <advance width="648"/>
  <unicode hex="0022"/>
  <outline>
    <contour>
      <point x="165" y="1026" type="line"/>
      <point x="232" y="1026" type="line"/>
      <point x="266" y="1519" type="line"/>
      <point x="113" y="1519" type="line"/>
    </contour>
    <contour>
      <point x="430" y="1026" type="line"/>
      <point x="497" y="1026" type="line"/>
      <point x="532" y="1519" type="line"/>
      <point x="379" y="1519" type="line"/>
    </contour>
  </outline>
</glyph>
<glyph name="numbersign" format="1">
  <advance width="1165"/>
  <unicode hex="0023"/>
  <outline>
    <contour>
      <point x="197" y="-11" type="line"/>
      <point x="290" y="-11" type="line"/>
      <point x="381" y="439" type="line"/>
      <point x="677" y="439" type="line"/>
      <point x="588" y="-11" type="line"/>
      <point x="680" y="-11" type="line"/>
      <point x="771" y="439" type="line"/>
      <point x="982" y="439" type="line"/>
      <point x="995" y="523" type="line"/>
      <point x="788" y="523" type="line"/>
      <point x="879" y="979" type="line"/>
      <point x="1074" y="979" type="line"/>
      <point x="1088" y="1061" type="line"/>
      <point x="896" y="1061" type="line"/>
      <point x="990" y="1514" type="line"/>
      <point x="898" y="1514" type="line"/>
      <point x="804" y="1061" type="line"/>
      <point x="508" y="1061" type="line"/>
      <point x="602" y="1514" type="line"/>
      <point x="508" y="1514" type="line"/>
      <point x="412" y="1061" type="line"/>
      <point x="221" y="1061" type="line"/>
      <point x="210" y="979" type="line"/>
      <point x="395" y="979" type="line"/>
      <point x="304" y="523" type="line"/>
      <point x="120" y="523" type="line"/>
      <point x="109" y="439" type="line"/>
      <point x="288" y="439" type="line"/>
    </contour>
    <contour>
      <point x="398" y="523" type="line"/>
      <point x="490" y="979" type="line"/>
      <point x="786" y="979" type="line"/>
      <point x="694" y="523" type="line"/>
    </contour>
  </outline>
</glyph>
<glyph name="percent" format="1">
  <advance width="1696"/>
  <unicode hex="0025"/>
  <outline>
    <contour>
      <point x="390" y="803" type="curve" smooth="yes"/>
      <point x="229" y="803"/>
      <point x="181" y="926"/>
      <point x="181" y="1096" type="curve" smooth="yes"/>
      <point x="181" y="1261"/>
      <point x="229" y="1386"/>
      <point x="390" y="1386" type="curve" smooth="yes"/>
      <point x="549" y="1386"/>
      <point x="597" y="1266"/>
      <point x="597" y="1096" type="curve" smooth="yes"/>
      <point x="597" y="931"/>
      <point x="550" y="803"/>
    </contour>
    <contour>
      <point x="388" y="713" type="curve" smooth="yes"/>
      <point x="613" y="713"/>
      <point x="706" y="880"/>
      <point x="706" y="1095" type="curve" smooth="yes"/>
      <point x="706" y="1314"/>
      <point x="616" y="1475"/>
      <point x="388" y="1475" type="curve" smooth="yes"/>
      <point x="165" y="1475"/>
      <point x="75" y="1311"/>
      <point x="75" y="1095" type="curve" smooth="yes"/>
      <point x="75" y="880"/>
      <point x="161" y="713"/>
    </contour>
    <contour>
      <point x="343" y="0" type="line"/>
      <point x="467" y="0" type="line"/>
      <point x="1289" y="1460" type="line"/>
      <point x="1174" y="1460" type="line"/>
    </contour>
    <contour>
      <point x="1243" y="82" type="curve" smooth="yes"/>
      <point x="1083" y="82"/>
      <point x="1034" y="206"/>
      <point x="1034" y="375" type="curve" smooth="yes"/>
      <point x="1034" y="540"/>
      <point x="1082" y="665"/>
      <point x="1243" y="665" type="curve" smooth="yes"/>
      <point x="1402" y="665"/>
      <point x="1450" y="546"/>
      <point x="1450" y="375" type="curve" smooth="yes"/>
      <point x="1450" y="210"/>
      <point x="1403" y="82"/>
    </contour>
    <contour>
      <point x="1241" y="-8" type="curve" smooth="yes"/>
      <point x="1466" y="-8"/>
      <point x="1560" y="159"/>
      <point x="1560" y="374" type="curve" smooth="yes"/>
      <point x="1560" y="593"/>
      <point x="1469" y="755"/>
      <point x="1241" y="755" type="curve" smooth="yes"/>
      <point x="1019" y="755"/>
      <point x="924" y="590"/>
      <point x="924" y="374" type="curve" smooth="yes"/>
      <point x="924" y="159"/>
      <point x="1015" y="-8"/>
    </contour>
  </outline>
</glyph>
<glyph name="ampersand" format="1">
  <advance width="1449"/>
  <unicode hex="0026"/>
  <outline>
    <contour>
      <point x="1229" y="-24" type="line"/>
      <point x="1309" y="56" type="line"/>
      <point x="1130" y="240" type="line"/>
      <point x="1231" y="358"/>
      <point x="1302" y="496"/>
      <point x="1355" y="607" type="curve"/>
      <point x="1266" y="667" type="line"/>
      <point x="1197" y="526"/>
      <point x="1125" y="411"/>
      <point x="1049" y="322" type="curve"/>
      <point x="617" y="772" type="line"/>
      <point x="809" y="865"/>
      <point x="980" y="977"/>
      <point x="980" y="1169" type="curve" smooth="yes"/>
      <point x="980" y="1365"/>
      <point x="836" y="1479"/>
      <point x="638" y="1479" type="curve" smooth="yes"/>
      <point x="417" y="1479"/>
      <point x="260" y="1354"/>
      <point x="260" y="1166" type="curve" smooth="yes"/>
      <point x="260" y="1039"/>
      <point x="313" y="939"/>
      <point x="442" y="797" type="curve"/>
      <point x="249" y="691"/>
      <point x="137" y="571"/>
      <point x="137" y="379" type="curve" smooth="yes"/>
      <point x="137" y="134"/>
      <point x="312" y="-20"/>
      <point x="610" y="-20" type="curve" smooth="yes"/>
      <point x="790" y="-20"/>
      <point x="937" y="53"/>
      <point x="1053" y="158" type="curve"/>
    </contour>
    <contour>
      <point x="630" y="92" type="curve" smooth="yes"/>
      <point x="400" y="92"/>
      <point x="274" y="199"/>
      <point x="274" y="388" type="curve" smooth="yes"/>
      <point x="274" y="532"/>
      <point x="360" y="631"/>
      <point x="516" y="718" type="curve"/>
      <point x="974" y="239" type="line"/>
      <point x="867" y="138"/>
      <point x="756" y="92"/>
    </contour>
    <contour>
      <point x="547" y="848" type="curve"/>
      <point x="416" y="997"/>
      <point x="381" y="1066"/>
      <point x="381" y="1169" type="curve" smooth="yes"/>
      <point x="381" y="1293"/>
      <point x="488" y="1376"/>
      <point x="637" y="1376" type="curve" smooth="yes"/>
      <point x="776" y="1376"/>
      <point x="856" y="1297"/>
      <point x="856" y="1170" type="curve" smooth="yes"/>
      <point x="856" y="1016"/>
      <point x="704" y="925"/>
    </contour>
  </outline>
</glyph>
<glyph name="quotesingle" format="1">
  <advance width="342"/>
  <unicode hex="0027"/>
  <outline>
    <contour>
      <point x="123" y="975" type="line"/>
      <point x="209" y="975" type="line"/>
      <point x="231" y="1485" type="line"/>
      <point x="90" y="1485" type="line"/>
    </contour>
  </outline>
</glyph>
<glyph name="plus" format="1">
  <advance width="1145"/>
  <unicode hex="002B"/>
  <outline>
    <contour>
      <point x="499" y="216" type="line"/>
      <point x="638" y="216" type="line"/>
      <point x="638" y="609" type="line"/>
      <point x="998" y="609" type="line"/>
      <point x="998" y="734" type="line"/>
      <point x="638" y="734" type="line"/>
      <point x="638" y="1119" type="line"/>
      <point x="500" y="1119" type="line"/>
      <point x="500" y="734" type="line"/>
      <point x="133" y="734" type="line"/>
      <point x="133" y="609" type="line"/>
      <point x="499" y="609" type="line"/>
    </contour>
  </outline>
</glyph>
<glyph name="comma" format="1">
  <advance width="562"/>
  <unicode hex="002C"/>
  <outline>
    <contour>
      <point x="179" y="-300" type="curve"/>
      <point x="259" y="-300" type="line"/>
      <point x="259" y="-300"/>
      <point x="362" y="136"/>
      <point x="362" y="156" type="curve"/>
      <point x="362" y="222" type="line"/>
      <point x="206" y="222" type="line"/>
      <point x="206" y="169"/>
      <point x="179" y="-300"/>
    </contour>
  </outline>
</glyph>
<glyph name="hyphen" format="1">
  <advance width="842"/>
  <unicode hex="002D"/>
  <outline>
    <contour>
      <point x="395" y="593" type="move" name="_mid"/>
    </contour>
    <contour>
      <point x="160" y="529" type="line"/>
      <point x="665" y="529" type="line"/>
      <point x="665" y="642" type="line"/>
      <point x="160" y="642" type="line"/>
    </contour>
  </outline>
</glyph>
<glyph name="period" format="1">
  <advance width="564"/>
  <unicode hex="002E"/>
  <outline>
    <contour>
      <point x="286" y="-15" type="curve" smooth="yes"/>
      <point x="355" y="-15"/>
      <point x="380" y="29"/>
      <point x="380" y="90" type="curve" smooth="yes"/>
      <point x="380" y="150"/>
      <point x="355" y="194"/>
      <point x="286" y="194" type="curve" smooth="yes"/>
      <point x="213" y="194"/>
      <point x="190" y="150"/>
      <point x="190" y="90" type="curve" smooth="yes"/>
      <point x="190" y="29"/>
      <point x="214" y="-15"/>
    </contour>
  </outline>
</glyph>
<glyph name="zero" format="1">
  <advance width="1250"/>
  <unicode hex="0030"/>
  <outline>
    <contour>
      <point x="629" y="105" type="curve" smooth="yes"/>
      <point x="429" y="105"/>
      <point x="286" y="259"/>
      <point x="286" y="722" type="curve" smooth="yes"/>
      <point x="286" y="1152"/>
      <point x="429" y="1351"/>
      <point x="629" y="1351" type="curve" smooth="yes"/>
      <point x="829" y="1351"/>
      <point x="961" y="1187"/>
      <point x="961" y="718" type="curve" smooth="yes"/>
      <point x="961" y="260"/>
      <point x="829" y="105"/>
    </contour>
    <contour>
      <point x="629" y="-20" type="curve" smooth="yes"/>
      <point x="962" y="-20"/>
      <point x="1109" y="256"/>
      <point x="1109" y="713" type="curve" smooth="yes"/>
      <point x="1109" y="1198"/>
      <point x="943" y="1476"/>
      <point x="629" y="1476" type="curve" smooth="yes"/>
      <point x="314" y="1476"/>
      <point x="137" y="1196"/>
      <point x="137" y="713" type="curve" smooth="yes"/>
      <point x="137" y="256"/>
      <point x="295" y="-20"/>
    </contour>
  </outline>
</glyph>
<glyph name="one" format="1">
  <advance width="1236"/>
  <unicode hex="0031"/>
  <outline>
    <contour>
      <point x="213" y="0" type="line"/>
      <point x="1093" y="0" type="line"/>
      <point x="1093" y="110" type="line"/>
      <point x="750" y="110" type="line"/>
      <point x="749" y="1456" type="line"/>
      <point x="608" y="1456" type="line"/>
      <point x="532" y="1402"/>
      <point x="313" y="1330"/>
      <point x="237" y="1316" type="curve"/>
      <point x="237" y="1198" type="line"/>
      <point x="306" y="1207"/>
      <point x="491" y="1262"/>
      <point x="599" y="1321" type="curve"/>
      <point x="599" y="110" type="line"/>
      <point x="213" y="110" type="line"/>
    </contour>
  </outline>
</glyph>
<glyph name="two" format="1">
  <advance width="1236"/>
  <unicode hex="0032"/>
  <outline>
    <contour>
      <point x="163" y="0" type="line"/>
      <point x="1027" y="0" type="line"/>
      <point x="1034" y="120" type="line"/>
      <point x="303" y="120" type="line"/>
      <point x="777" y="587" type="line" smooth="yes"/>
      <point x="969" y="775"/>
      <point x="1039" y="885"/>
      <point x="1039" y="1070" type="curve" smooth="yes"/>
      <point x="1039" y="1333"/>
      <point x="838" y="1476"/>
      <point x="575" y="1476" type="curve" smooth="yes"/>
      <point x="409" y="1476"/>
      <point x="245" y="1414"/>
      <point x="151" y="1324" type="curve"/>
      <point x="217" y="1235" type="line"/>
      <point x="233" y="1235" type="line"/>
      <point x="322" y="1312"/>
      <point x="451" y="1355"/>
      <point x="574" y="1355" type="curve" smooth="yes"/>
      <point x="756" y="1355"/>
      <point x="898" y="1258"/>
      <point x="898" y="1067" type="curve" smooth="yes"/>
      <point x="898" y="915"/>
      <point x="835" y="828"/>
      <point x="682" y="675" type="curve" smooth="yes"/>
      <point x="130" y="124" type="line"/>
    </contour>
  </outline>
</glyph>
<glyph name="three" format="1">
  <advance width="1228"/>
  <unicode hex="0033"/>
  <outline>
    <contour>
      <point x="597" y="-20" type="curve" smooth="yes"/>
      <point x="905" y="-20"/>
      <point x="1070" y="156"/>
      <point x="1070" y="387" type="curve" smooth="yes"/>
      <point x="1070" y="601"/>
      <point x="951" y="737"/>
      <point x="744" y="773" type="curve"/>
      <point x="934" y="814"/>
      <point x="1031" y="925"/>
      <point x="1031" y="1109" type="curve" smooth="yes"/>
      <point x="1031" y="1340"/>
      <point x="858" y="1476"/>
      <point x="601" y="1476" type="curve" smooth="yes"/>
      <point x="465" y="1476"/>
      <point x="271" y="1435"/>
      <point x="164" y="1281" type="curve"/>
      <point x="244" y="1204" type="line"/>
      <point x="257" y="1204" type="line"/>
      <point x="346" y="1310"/>
      <point x="469" y="1354"/>
      <point x="593" y="1354" type="curve" smooth="yes"/>
      <point x="774" y="1354"/>
      <point x="890" y="1272"/>
      <point x="890" y="1107" type="curve" smooth="yes"/>
      <point x="890" y="863"/>
      <point x="675" y="833"/>
      <point x="495" y="829" type="curve" smooth="yes"/>
      <point x="426" y="829" type="line"/>
      <point x="445" y="708" type="line"/>
      <point x="494" y="708" type="line" smooth="yes"/>
      <point x="750" y="706"/>
      <point x="928" y="648"/>
      <point x="928" y="388" type="curve" smooth="yes"/>
      <point x="928" y="189"/>
      <point x="790" y="101"/>
      <point x="598" y="101" type="curve" smooth="yes"/>
      <point x="475" y="101"/>
      <point x="337" y="142"/>
      <point x="264" y="235" type="curve"/>
      <point x="252" y="235" type="line"/>
      <point x="173" y="160" type="line"/>
      <point x="251" y="44"/>
      <point x="421" y="-20"/>
    </contour>
  </outline>
</glyph>
<glyph name="four" format="1">
  <advance width="1236"/>
  <unicode hex="0034"/>
  <outline>
    <contour>
      <point x="797" y="0" type="line"/>
      <point x="942" y="0" type="line"/>
      <point x="942" y="386" type="line"/>
      <point x="1108" y="386" type="line"/>
      <point x="1119" y="502" type="line"/>
      <point x="942" y="502" type="line"/>
      <point x="941" y="1456" type="line"/>
      <point x="797" y="1456" type="line"/>
      <point x="133" y="517" type="line"/>
      <point x="162" y="386" type="line"/>
      <point x="797" y="386" type="line"/>
    </contour>
    <contour>
      <point x="280" y="502" type="line"/>
      <point x="797" y="1265" type="line"/>
      <point x="797" y="502" type="line"/>
    </contour>
  </outline>
</glyph>
<glyph name="five" format="1">
  <advance width="1236"/>
  <unicode hex="0035"/>
  <outline>
    <contour>
      <point x="597" y="-20" type="curve" smooth="yes"/>
      <point x="911" y="-20"/>
      <point x="1108" y="189"/>
      <point x="1108" y="470" type="curve" smooth="yes"/>
      <point x="1108" y="701"/>
      <point x="960" y="922"/>
      <point x="660" y="922" type="curve" smooth="yes"/>
      <point x="544" y="922"/>
      <point x="462" y="888"/>
      <point x="380" y="826" type="curve"/>
      <point x="425" y="1340" type="line"/>
      <point x="1011" y="1340" type="line"/>
      <point x="1026" y="1456" type="line"/>
      <point x="293" y="1456" type="line"/>
      <point x="245" y="705" type="line"/>
      <point x="372" y="689" type="line"/>
      <point x="433" y="764"/>
      <point x="537" y="809"/>
      <point x="647" y="809" type="curve" smooth="yes"/>
      <point x="861" y="808"/>
      <point x="953" y="642"/>
      <point x="953" y="467" type="curve" smooth="yes"/>
      <point x="953" y="256"/>
      <point x="813" y="103"/>
      <point x="593" y="103" type="curve" smooth="yes"/>
      <point x="463" y="103"/>
      <point x="360" y="145"/>
      <point x="263" y="241" type="curve"/>
      <point x="250" y="241" type="line"/>
      <point x="173" y="154" type="line"/>
      <point x="264" y="59"/>
      <point x="412" y="-20"/>
    </contour>
  </outline>
</glyph>
<glyph name="six" format="1">
  <advance width="1236"/>
  <unicode hex="0036"/>
  <outline>
    <contour>
      <point x="641" y="-20" type="curve" smooth="yes"/>
      <point x="930" y="-20"/>
      <point x="1103" y="187"/>
      <point x="1103" y="436" type="curve" smooth="yes"/>
      <point x="1103" y="702"/>
      <point x="912" y="869"/>
      <point x="690" y="869" type="curve" smooth="yes"/>
      <point x="569" y="869"/>
      <point x="466" y="820"/>
      <point x="396" y="757" type="curve"/>
      <point x="552" y="982"/>
      <point x="719" y="1213"/>
      <point x="876" y="1436" type="curve"/>
      <point x="876" y="1456" type="line"/>
      <point x="724" y="1456" type="line"/>
      <point x="395" y="989" type="line" smooth="yes"/>
      <point x="253" y="787"/>
      <point x="179" y="662"/>
      <point x="179" y="440" type="curve" smooth="yes"/>
      <point x="179" y="208"/>
      <point x="337" y="-20"/>
    </contour>
    <contour>
      <point x="639" y="97" type="curve" smooth="yes"/>
      <point x="428" y="97"/>
      <point x="319" y="255"/>
      <point x="319" y="430" type="curve" smooth="yes"/>
      <point x="319" y="690"/>
      <point x="528" y="758"/>
      <point x="645" y="758" type="curve" smooth="yes"/>
      <point x="845" y="758"/>
      <point x="962" y="620"/>
      <point x="962" y="436" type="curve" smooth="yes"/>
      <point x="962" y="259"/>
      <point x="849" y="97"/>
    </contour>
  </outline>
</glyph>
<glyph name="seven" format="1">
  <advance width="1236"/>
  <unicode hex="0037"/>
  <outline>
    <contour>
      <point x="357" y="0" type="line"/>
      <point x="506" y="0" type="line"/>
      <point x="1056" y="1347" type="line"/>
      <point x="1056" y="1456" type="line"/>
      <point x="184" y="1456" type="line"/>
      <point x="201" y="1339" type="line"/>
      <point x="904" y="1339" type="line"/>
    </contour>
  </outline>
</glyph>
<glyph name="eight" format="1">
  <advance width="1236"/>
  <unicode hex="0038"/>
  <outline>
    <contour>
      <point x="618" y="-20" type="curve" smooth="yes"/>
      <point x="880" y="-20"/>
      <point x="1085" y="103"/>
      <point x="1085" y="358" type="curve" smooth="yes"/>
      <point x="1085" y="551"/>
      <point x="963" y="705"/>
      <point x="768" y="762" type="curve"/>
      <point x="939" y="819"/>
      <point x="1052" y="933"/>
      <point x="1052" y="1118" type="curve" smooth="yes"/>
      <point x="1052" y="1344"/>
      <point x="878" y="1476"/>
      <point x="619" y="1476" type="curve" smooth="yes"/>
      <point x="359" y="1476"/>
      <point x="181" y="1344"/>
      <point x="181" y="1118" type="curve" smooth="yes"/>
      <point x="181" y="934"/>
      <point x="306" y="808"/>
      <point x="469" y="759" type="curve"/>
      <point x="265" y="693"/>
      <point x="150" y="568"/>
      <point x="150" y="358" type="curve" smooth="yes"/>
      <point x="150" y="102"/>
      <point x="358" y="-20"/>
    </contour>
    <contour>
      <point x="618" y="94" type="curve" smooth="yes"/>
      <point x="400" y="94"/>
      <point x="286" y="190"/>
      <point x="286" y="372" type="curve" smooth="yes"/>
      <point x="286" y="557"/>
      <point x="430" y="660"/>
      <point x="618" y="701" type="curve"/>
      <point x="807" y="660"/>
      <point x="946" y="549"/>
      <point x="946" y="373" type="curve" smooth="yes"/>
      <point x="946" y="182"/>
      <point x="843" y="94"/>
    </contour>
    <contour>
      <point x="618" y="809" type="curve"/>
      <point x="425" y="852"/>
      <point x="327" y="960"/>
      <point x="327" y="1122" type="curve" smooth="yes"/>
      <point x="327" y="1273"/>
      <point x="443" y="1363"/>
      <point x="618" y="1363" type="curve" smooth="yes"/>
      <point x="794" y="1363"/>
      <point x="907" y="1274"/>
      <point x="907" y="1122" type="curve" smooth="yes"/>
      <point x="907" y="960"/>
      <point x="813" y="852"/>
    </contour>
  </outline>
</glyph>
<glyph name="nine" format="1">
  <advance width="1236"/>
  <unicode hex="0039"/>
  <outline>
    <contour>
      <point x="356" y="0" type="line"/>
      <point x="516" y="0" type="line"/>
      <point x="866" y="457" type="line"/>
      <point x="1014" y="650"/>
      <point x="1110" y="794"/>
      <point x="1110" y="1016" type="curve" smooth="yes"/>
      <point x="1110" y="1248"/>
      <point x="953" y="1476"/>
      <point x="648" y="1476" type="curve" smooth="yes"/>
      <point x="359" y="1476"/>
      <point x="178" y="1272"/>
      <point x="178" y="1023" type="curve" smooth="yes"/>
      <point x="178" y="758"/>
      <point x="376" y="584"/>
      <point x="601" y="584" type="curve" smooth="yes"/>
      <point x="688" y="584"/>
      <point x="779" y="608"/>
      <point x="850" y="653" type="curve"/>
      <point x="809" y="600"/>
      <point x="768" y="546"/>
      <point x="727" y="493" type="curve" smooth="yes"/>
      <point x="604" y="333"/>
      <point x="479" y="175"/>
      <point x="356" y="16" type="curve"/>
    </contour>
    <contour>
      <point x="636" y="698" type="curve" smooth="yes"/>
      <point x="433" y="698"/>
      <point x="321" y="839"/>
      <point x="321" y="1023" type="curve" smooth="yes"/>
      <point x="321" y="1200"/>
      <point x="439" y="1361"/>
      <point x="648" y="1361" type="curve" smooth="yes"/>
      <point x="859" y="1361"/>
      <point x="971" y="1201"/>
      <point x="971" y="1027" type="curve" smooth="yes"/>
      <point x="971" y="765"/>
      <point x="757" y="698"/>
    </contour>
  </outline>
</glyph>
<glyph name="colon" format="1">
  <advance width="586"/>
  <unicode hex="003A"/>
  <outline>
    <contour>
      <point x="286" y="-14" type="curve" smooth="yes"/>
      <point x="362" y="-14"/>
      <point x="390" y="40"/>
      <point x="390" y="93" type="curve" smooth="yes"/>
      <point x="390" y="146"/>
      <point x="362" y="201"/>
      <point x="286" y="201" type="curve" smooth="yes"/>
      <point x="208" y="201"/>
      <point x="178" y="146"/>
      <point x="178" y="93" type="curve" smooth="yes"/>
      <point x="178" y="40"/>
      <point x="210" y="-14"/>
    </contour>
    <contour>
      <point x="286" y="858" type="curve" smooth="yes"/>
      <point x="362" y="858"/>
      <point x="390" y="912"/>
      <point x="390" y="965" type="curve" smooth="yes"/>
      <point x="390" y="1018"/>
      <point x="362" y="1073"/>
      <point x="286" y="1073" type="curve" smooth="yes"/>
      <point x="208" y="1073"/>
      <point x="178" y="1018"/>
      <point x="178" y="965" type="curve" smooth="yes"/>
      <point x="178" y="912"/>
      <point x="210" y="858"/>
    </contour>
  </outline>
</glyph>
<glyph name="semicolon" format="1">
  <advance width="616"/>
  <unicode hex="003B"/>
  <outline>
    <contour>
      <point x="220" y="-300" type="curve"/>
      <point x="299" y="-300" type="line"/>
      <point x="299" y="-300"/>
      <point x="402" y="136"/>
      <point x="402" y="156" type="curve"/>
      <point x="402" y="222" type="line"/>
      <point x="246" y="222" type="line"/>
      <point x="246" y="169"/>
      <point x="220" y="-300"/>
    </contour>
    <contour>
      <point x="319" y="852" type="curve" smooth="yes"/>
      <point x="395" y="852"/>
      <point x="424" y="906"/>
      <point x="424" y="960" type="curve" smooth="yes"/>
      <point x="424" y="1013"/>
      <point x="395" y="1067"/>
      <point x="319" y="1067" type="curve" smooth="yes"/>
      <point x="242" y="1067"/>
      <point x="212" y="1013"/>
      <point x="212" y="960" type="curve" smooth="yes"/>
      <point x="212" y="906"/>
      <point x="243" y="852"/>
    </contour>
  </outline>
</glyph>
<glyph name="less" format="1">
  <advance width="1152"/>
  <unicode hex="003C"/>
  <outline>
    <contour>
      <point x="1025" y="126" type="line"/>
      <point x="1026" y="252" type="line"/>
      <point x="248" y="623" type="line"/>
      <point x="1027" y="1020" type="line"/>
      <point x="1027" y="1146" type="line"/>
      <point x="92" y="659" type="line"/>
      <point x="92" y="580" type="line"/>
    </contour>
  </outline>
</glyph>
<glyph name="greater" format="1">
  <advance width="1158"/>
  <unicode hex="003E"/>
  <outline>
    <contour>
      <point x="113" y="133" type="line"/>
      <point x="1048" y="578" type="line"/>
      <point x="1048" y="658" type="line"/>
      <point x="116" y="1153" type="line"/>
      <point x="116" y="1027" type="line"/>
      <point x="883" y="623" type="line"/>
      <point x="113" y="259" type="line"/>
    </contour>
  </outline>
</glyph>
<glyph name="question" format="1">
  <advance width="915"/>
  <unicode hex="003F"/>
  <outline>
    <contour>
      <point x="333" y="415" type="curve"/>
      <point x="402" y="414" type="line"/>
      <point x="507" y="782"/>
      <point x="750" y="870"/>
      <point x="750" y="1171" type="curve" smooth="yes"/>
      <point x="750" y="1389"/>
      <point x="598" y="1496"/>
      <point x="413" y="1496" type="curve" smooth="yes"/>
      <point x="291" y="1496"/>
      <point x="189" y="1456"/>
      <point x="116" y="1402" type="curve"/>
      <point x="143" y="1284" type="line"/>
      <point x="185" y="1312"/>
      <point x="289" y="1372"/>
      <point x="395" y="1372" type="curve" smooth="yes"/>
      <point x="527" y="1372"/>
      <point x="605" y="1305"/>
      <point x="605" y="1159" type="curve" smooth="yes"/>
      <point x="605" y="924"/>
      <point x="345" y="698"/>
    </contour>
    <contour>
      <point x="369" y="-15" type="curve" smooth="yes"/>
      <point x="447" y="-15"/>
      <point x="476" y="37"/>
      <point x="476" y="91" type="curve" smooth="yes"/>
      <point x="476" y="143"/>
      <point x="447" y="196"/>
      <point x="369" y="196" type="curve" smooth="yes"/>
      <point x="290" y="196"/>
      <point x="261" y="143"/>
      <point x="261" y="91" type="curve" smooth="yes"/>
      <point x="261" y="39"/>
      <point x="290" y="-15"/>
    </contour>
  </outline>
</glyph>
<glyph name="at" format="1">
  <advance width="2017"/>
  <unicode hex="0040"/>
  <outline>
    <contour>
      <point x="984" y="-219" type="curve" smooth="yes"/>
      <point x="1182" y="-219"/>
      <point x="1373" y="-169"/>
      <point x="1505" y="-78" type="curve"/>
      <point x="1467" y="11" type="line"/>
      <point x="1329" y="-75"/>
      <point x="1158" y="-112"/>
      <point x="988" y="-112" type="curve" smooth="yes"/>
      <point x="571" y="-112"/>
      <point x="302" y="160"/>
      <point x="302" y="603" type="curve" smooth="yes"/>
      <point x="302" y="1055"/>
      <point x="611" y="1390"/>
      <point x="1048" y="1390" type="curve" smooth="yes"/>
      <point x="1468" y="1390"/>
      <point x="1713" y="1122"/>
      <point x="1713" y="755" type="curve" smooth="yes"/>
      <point x="1713" y="493"/>
      <point x="1593" y="317"/>
      <point x="1452" y="317" type="curve" smooth="yes"/>
      <point x="1360" y="317"/>
      <point x="1308" y="395"/>
      <point x="1308" y="488" type="curve" smooth="yes"/>
      <point x="1308" y="618"/>
      <point x="1334" y="773"/>
      <point x="1372" y="1018" type="curve"/>
      <point x="1284" y="1056"/>
      <point x="1163" y="1086"/>
      <point x="1061" y="1086" type="curve" smooth="yes"/>
      <point x="771" y="1086"/>
      <point x="613" y="838"/>
      <point x="613" y="567" type="curve" smooth="yes"/>
      <point x="613" y="350"/>
      <point x="725" y="203"/>
      <point x="915" y="203" type="curve" smooth="yes"/>
      <point x="1062" y="203"/>
      <point x="1163" y="317"/>
      <point x="1214" y="457" type="curve"/>
      <point x="1227" y="278"/>
      <point x="1345" y="217"/>
      <point x="1452" y="217" type="curve"/>
      <point x="1630" y="217"/>
      <point x="1828" y="396"/>
      <point x="1828" y="750" type="curve" smooth="yes"/>
      <point x="1828" y="1209"/>
      <point x="1495" y="1496"/>
      <point x="1053" y="1496" type="curve" smooth="yes"/>
      <point x="541" y="1496"/>
      <point x="172" y="1117"/>
      <point x="172" y="605" type="curve" smooth="yes"/>
      <point x="172" y="89"/>
      <point x="497" y="-219"/>
    </contour>
    <contour>
      <point x="931" y="306" type="curve" smooth="yes"/>
      <point x="808" y="306"/>
      <point x="743" y="399"/>
      <point x="743" y="573" type="curve" smooth="yes"/>
      <point x="743" y="820"/>
      <point x="878" y="992"/>
      <point x="1074" y="992" type="curve" smooth="yes"/>
      <point x="1107" y="992"/>
      <point x="1181" y="980"/>
      <point x="1231" y="969" type="curve"/>
      <point x="1184" y="690" type="line"/>
      <point x="1150" y="482"/>
      <point x="1086" y="306"/>
    </contour>
  </outline>
</glyph>
<glyph name="A" format="1">
  <advance width="1363"/>
  <unicode hex="0041"/>
  <outline>
    <contour>
      <point x="679" y="1456" type="move" name="top"/>
    </contour>
    <contour>
      <point x="1220" y="0" type="move" name="ogonek"/>
    </contour>
    <contour>
      <point x="680" y="0" type="move" name="bot"/>
    </contour>
    <contour>
      <point x="58" y="0" type="line"/>
      <point x="209" y="0" type="line"/>
      <point x="388" y="477" type="line"/>
      <point x="978" y="477" type="line"/>
      <point x="1156" y="0" type="line"/>
      <point x="1304" y="0" type="line"/>
      <point x="752" y="1456" type="line"/>
      <point x="608" y="1456" type="line"/>
    </contour>
    <contour>
      <point x="426" y="586" type="line"/>
      <point x="680" y="1296" type="line"/>
      <point x="941" y="586" type="line"/>
    </contour>
  </outline>
</glyph>
<glyph name="B" format="1">
  <advance width="1370"/>
  <unicode hex="0042"/>
  <outline>
    <contour>
      <point x="669" y="1456" type="move" name="top"/>
    </contour>
    <contour>
      <point x="563" y="-11" type="curve" smooth="yes"/>
      <point x="1053" y="-11"/>
      <point x="1243" y="112"/>
      <point x="1243" y="419" type="curve" smooth="yes"/>
      <point x="1243" y="605"/>
      <point x="1148" y="729"/>
      <point x="932" y="778" type="curve"/>
      <point x="1131" y="840"/>
      <point x="1187" y="956"/>
      <point x="1187" y="1100" type="curve" smooth="yes"/>
      <point x="1187" y="1301"/>
      <point x="1097" y="1465"/>
      <point x="594" y="1465" type="curve" smooth="yes"/>
      <point x="487" y="1465"/>
      <point x="348" y="1459"/>
      <point x="211" y="1449" type="curve"/>
      <point x="211" y="5" type="line"/>
      <point x="343" y="-5"/>
      <point x="459" y="-11"/>
    </contour>
    <contour>
      <point x="594" y="105" type="curve" smooth="yes"/>
      <point x="526" y="105"/>
      <point x="449" y="108"/>
      <point x="364" y="113" type="curve"/>
      <point x="364" y="722" type="line"/>
      <point x="653" y="722" type="line" smooth="yes"/>
      <point x="953" y="722"/>
      <point x="1090" y="642"/>
      <point x="1090" y="413" type="curve" smooth="yes"/>
      <point x="1090" y="219"/>
      <point x="1009" y="105"/>
    </contour>
    <contour>
      <point x="364" y="832" type="line"/>
      <point x="364" y="1345" type="line"/>
      <point x="431" y="1349"/>
      <point x="544" y="1353"/>
      <point x="614" y="1353" type="curve" smooth="yes"/>
      <point x="940" y="1353"/>
      <point x="1046" y="1273"/>
      <point x="1046" y="1090" type="curve" smooth="yes"/>
      <point x="1046" y="874"/>
      <point x="888" y="832"/>
      <point x="693" y="832" type="curve" smooth="yes"/>
    </contour>
  </outline>
</glyph>
<glyph name="E" format="1">
  <advance width="1239"/>
  <unicode hex="0045"/>
  <outline>
    <contour>
      <point x="211" y="0" type="line"/>
      <point x="1127" y="0" type="line"/>
      <point x="1138" y="118" type="line"/>
      <point x="364" y="118" type="line"/>
      <point x="364" y="692" type="line"/>
      <point x="1055" y="692" type="line"/>
      <point x="1055" y="808" type="line"/>
      <point x="364" y="808" type="line"/>
      <point x="363" y="1339" type="line"/>
      <point x="1123" y="1339" type="line"/>
      <point x="1128" y="1456" type="line"/>
      <point x="211" y="1456" type="line"/>
    </contour>
    <contour>
      <point x="708" y="1456" type="move" name="top"/>
    </contour>
    <contour>
      <point x="846" y="0" type="move" name="ogonek"/>
    </contour>
    <contour>
      <point x="654" y="0" type="move" name="bot"/>
    </contour>
  </outline>
</glyph>
<glyph name="G" format="1">
  <advance width="1482"/>
  <unicode hex="0047"/>
  <outline>
    <contour>
      <point x="821" y="1456" type="move" name="top"/>
    </contour>
    <contour>
      <point x="827" y="1" type="move" name="bot"/>
    </contour>
    <contour>
      <point x="834" y="-19" type="curve" smooth="yes"/>
      <point x="1034" y="-19"/>
      <point x="1184" y="13"/>
      <point x="1330" y="68" type="curve"/>
      <point x="1330" y="748" type="line"/>
      <point x="861" y="748" type="line"/>
      <point x="851" y="636" type="line"/>
      <point x="1186" y="623" type="line"/>
      <point x="1186" y="147" type="line"/>
      <point x="1114" y="125"/>
      <point x="995" y="101"/>
      <point x="862" y="101" type="curve" smooth="yes"/>
      <point x="476" y="101"/>
      <point x="306" y="348"/>
      <point x="306" y="731" type="curve" smooth="yes"/>
      <point x="306" y="1119"/>
      <point x="527" y="1354"/>
      <point x="859" y="1354" type="curve" smooth="yes"/>
      <point x="1025" y="1354"/>
      <point x="1152" y="1292"/>
      <point x="1239" y="1220" type="curve"/>
      <point x="1253" y="1220" type="line"/>
      <point x="1322" y="1310" type="line"/>
      <point x="1213" y="1409"/>
      <point x="1056" y="1475"/>
      <point x="856" y="1475" type="curve" smooth="yes"/>
      <point x="429" y="1475"/>
      <point x="150" y="1188"/>
      <point x="150" y="730" type="curve" smooth="yes"/>
      <point x="150" y="298"/>
      <point x="377" y="-19"/>
    </contour>
  </outline>
</glyph>
<glyph name="I" format="1">
  <advance width="884"/>
  <unicode hex="0049"/>
  <outline>
    <contour>
      <point x="440" y="1456" type="move" name="top"/>
    </contour>
    <contour>
      <point x="450" y="0" type="move" name="ogonek"/>
    </contour>
    <contour>
      <point x="162" y="-1" type="line"/>
      <point x="716" y="-1" type="line"/>
      <point x="716" y="94" type="line"/>
      <point x="517" y="94" type="line"/>
      <point x="517" y="1362" type="line"/>
      <point x="716" y="1362" type="line"/>
      <point x="716" y="1456" type="line"/>
      <point x="162" y="1456" type="line"/>
      <point x="162" y="1362" type="line"/>
      <point x="363" y="1362" type="line"/>
      <point x="363" y="94" type="line"/>
      <point x="162" y="94" type="line"/>
    </contour>
  </outline>
</glyph>
<glyph name="K" format="1">
  <advance width="1288"/>
  <unicode hex="004B"/>
  <outline>
    <contour>
      <point x="663" y="1456" type="move" name="top"/>
    </contour>
    <contour>
      <point x="664" y="0" type="move" name="bot"/>
    </contour>
    <contour>
      <point x="211" y="0" type="line"/>
      <point x="364" y="0" type="line"/>
      <point x="364" y="602" type="line"/>
      <point x="509" y="745" type="line"/>
      <point x="1099" y="0" type="line"/>
      <point x="1271" y="0" type="line"/>
      <point x="1271" y="14" type="line"/>
      <point x="624" y="826" type="line"/>
      <point x="1232" y="1441" type="line"/>
      <point x="1232" y="1456" type="line"/>
      <point x="1063" y="1456" type="line"/>
      <point x="364" y="746" type="line"/>
      <point x="364" y="1456" type="line"/>
      <point x="211" y="1456" type="line"/>
    </contour>
  </outline>
</glyph>
<glyph name="M" format="1">
  <advance width="1795"/>
  <unicode hex="004D"/>
  <outline>
    <contour>
      <point x="906" y="1456" type="move" name="top"/>
    </contour>
    <contour>
      <point x="192" y="-1" type="line"/>
      <point x="335" y="-1" type="line"/>
      <point x="335" y="520" type="line"/>
      <point x="345" y="1270" type="line"/>
      <point x="835" y="157" type="line"/>
      <point x="962" y="157" type="line"/>
      <point x="1452" y="1259" type="line"/>
      <point x="1462" y="522" type="line"/>
      <point x="1462" y="-1" type="line"/>
      <point x="1604" y="-1" type="line"/>
      <point x="1604" y="524" type="line"/>
      <point x="1582" y="1456" type="line"/>
      <point x="1399" y="1456" type="line"/>
      <point x="900" y="328" type="line"/>
      <point x="403" y="1456" type="line"/>
      <point x="212" y="1456" type="line"/>
      <point x="192" y="523" type="line"/>
    </contour>
  </outline>
</glyph>
<glyph name="N" format="1">
  <advance width="1531"/>
  <unicode hex="004E"/>
  <outline>
    <contour>
      <point x="782" y="1456" type="move" name="top"/>
    </contour>
    <contour>
      <point x="773" y="0" type="move" name="bot"/>
    </contour>
    <contour>
      <point x="211" y="0" type="line"/>
      <point x="348" y="0" type="line"/>
      <point x="348" y="841" type="line"/>
      <point x="334" y="1254" type="line"/>
      <point x="1167" y="0" type="line"/>
      <point x="1321" y="0" type="line"/>
      <point x="1321" y="1456" type="line"/>
      <point x="1185" y="1456" type="line"/>
      <point x="1185" y="590" type="line"/>
      <point x="1194" y="193" type="line"/>
      <point x="358" y="1456" type="line"/>
      <point x="211" y="1456" type="line"/>
    </contour>
  </outline>
</glyph>
<glyph name="R" format="1">
  <advance width="1371"/>
  <unicode hex="0052"/>
  <outline>
    <contour>
      <point x="707" y="1456" type="move" name="top"/>
    </contour>
    <contour>
      <point x="713" y="0" type="move" name="bot"/>
    </contour>
    <contour>
      <point x="213" y="0" type="line"/>
      <point x="366" y="0" type="line"/>
      <point x="366" y="699" type="line"/>
      <point x="774" y="700" type="line"/>
      <point x="1117" y="0" type="line"/>
      <point x="1276" y="0" type="line"/>
      <point x="1276" y="17" type="line"/>
      <point x="927" y="716" type="line"/>
      <point x="1121" y="758"/>
      <point x="1231" y="867"/>
      <point x="1231" y="1087" type="curve" smooth="yes"/>
      <point x="1231" y="1365"/>
      <point x="1093" y="1465"/>
      <point x="649" y="1465" type="curve" smooth="yes"/>
      <point x="529" y="1465"/>
      <point x="349" y="1459"/>
      <point x="213" y="1449" type="curve"/>
    </contour>
    <contour>
      <point x="366" y="807" type="line"/>
      <point x="366" y="1345" type="line"/>
      <point x="479" y="1354"/>
      <point x="581" y="1354"/>
      <point x="662" y="1354" type="curve" smooth="yes"/>
      <point x="1012" y="1354"/>
      <point x="1089" y="1277"/>
      <point x="1089" y="1083" type="curve" smooth="yes"/>
      <point x="1089" y="883"/>
      <point x="1010" y="807"/>
      <point x="693" y="807" type="curve" smooth="yes"/>
    </contour>
  </outline>
</glyph>
<glyph name="S" format="1">
  <advance width="1210"/>
  <unicode hex="0053"/>
  <outline>
    <contour>
      <point x="599" y="-20" type="curve" smooth="yes"/>
      <point x="847" y="-20"/>
      <point x="1091" y="77"/>
      <point x="1091" y="386" type="curve" smooth="yes"/>
      <point x="1091" y="637"/>
      <point x="940" y="705"/>
      <point x="725" y="791" type="curve"/>
      <point x="510" y="879" type="line"/>
      <point x="338" y="950"/>
      <point x="288" y="984"/>
      <point x="288" y="1117" type="curve" smooth="yes"/>
      <point x="288" y="1302"/>
      <point x="455" y="1355"/>
      <point x="624" y="1355" type="curve" smooth="yes"/>
      <point x="760" y="1355"/>
      <point x="878" y="1310"/>
      <point x="962" y="1227" type="curve"/>
      <point x="975" y="1227" type="line"/>
      <point x="1051" y="1312" type="line"/>
      <point x="958" y="1413"/>
      <point x="801" y="1475"/>
      <point x="628" y="1475" type="curve" smooth="yes"/>
      <point x="391" y="1475"/>
      <point x="136" y="1400"/>
      <point x="136" y="1097" type="curve" smooth="yes"/>
      <point x="136" y="896"/>
      <point x="251" y="835"/>
      <point x="449" y="755" type="curve" smooth="yes"/>
      <point x="664" y="666" type="line" smooth="yes"/>
      <point x="882" y="577"/>
      <point x="947" y="532"/>
      <point x="947" y="386" type="curve" smooth="yes"/>
      <point x="947" y="177"/>
      <point x="806" y="102"/>
      <point x="598" y="102" type="curve" smooth="yes"/>
      <point x="412" y="102"/>
      <point x="300" y="166"/>
      <point x="209" y="256" type="curve"/>
      <point x="198" y="256" type="line"/>
      <point x="116" y="164" type="line"/>
      <point x="181" y="88"/>
      <point x="344" y="-20"/>
    </contour>
    <contour>
      <point x="618" y="1467" type="move" name="top"/>
    </contour>
    <contour>
      <point x="621" y="0" type="move" name="bot"/>
    </contour>
  </outline>
</glyph>
<glyph name="U" format="1">
  <advance width="1454"/>
  <unicode hex="0055"/>
  <outline>
    <contour>
      <point x="732" y="1456" type="move" name="top"/>
    </contour>
    <contour>
      <point x="839" y="11" type="move" name="ogonek"/>
    </contour>
    <contour>
      <point x="724" y="1" type="move" name="bot"/>
    </contour>
    <contour>
      <point x="726" y="-20" type="curve" smooth="yes"/>
      <point x="1106" y="-20"/>
      <point x="1280" y="194"/>
      <point x="1280" y="539" type="curve" smooth="yes"/>
      <point x="1280" y="1456" type="line"/>
      <point x="1126" y="1456" type="line"/>
      <point x="1126" y="542" type="line" smooth="yes"/>
      <point x="1126" y="251"/>
      <point x="1001" y="102"/>
      <point x="726" y="102" type="curve" smooth="yes"/>
      <point x="445" y="102"/>
      <point x="325" y="251"/>
      <point x="325" y="542" type="curve" smooth="yes"/>
      <point x="325" y="1456" type="line"/>
      <point x="172" y="1456" type="line"/>
      <point x="172" y="542" type="line" smooth="yes"/>
      <point x="172" y="192"/>
      <point x="343" y="-20"/>
    </contour>
  </outline>
</glyph>
<glyph name="V" format="1">
  <advance width="1402"/>
  <unicode hex="0056"/>
  <outline>
    <contour>
      <point x="637" y="-1" type="line"/>
      <point x="756" y="-1" type="line"/>
      <point x="1326" y="1456" type="line"/>
      <point x="1166" y="1456" type="line"/>
      <point x="1078" y="1209"/>
      <point x="784" y="454"/>
      <point x="699" y="205" type="curve"/>
      <point x="614" y="455"/>
      <point x="318" y="1209"/>
      <point x="230" y="1456" type="curve"/>
      <point x="76" y="1456" type="line"/>
    </contour>
  </outline>
</glyph>
<glyph name="W" format="1">
  <advance width="2021"/>
  <unicode hex="0057"/>
  <outline>
    <contour>
      <point x="494" y="0" type="line"/>
      <point x="641" y="0" type="line"/>
      <point x="1018" y="1247" type="line"/>
      <point x="1387" y="0" type="line"/>
      <point x="1537" y="0" type="line"/>
      <point x="1948" y="1455" type="line"/>
      <point x="1800" y="1455" type="line"/>
      <point x="1462" y="189" type="line"/>
      <point x="1091" y="1419" type="line"/>
      <point x="941" y="1419" type="line"/>
      <point x="573" y="196" type="line"/>
      <point x="210" y="1455" type="line"/>
      <point x="73" y="1455" type="line"/>
    </contour>
    <contour>
      <point x="1017" y="1456" type="move" name="top"/>
    </contour>
    <contour>
      <point x="1014" y="0" type="move" name="bot"/>
    </contour>
  </outline>
</glyph>
<glyph name="Y" format="1">
  <advance width="1302"/>
  <unicode hex="0059"/>
  <outline>
    <contour>
      <point x="585" y="0" type="line"/>
      <point x="737" y="0" type="line"/>
      <point x="737" y="554" type="line"/>
      <point x="1230" y="1456" type="line"/>
      <point x="1078" y="1456" type="line"/>
      <point x="660" y="685" type="line"/>
      <point x="218" y="1456" type="line"/>
      <point x="72" y="1456" type="line"/>
      <point x="585" y="555" type="line"/>
    </contour>
    <contour>
      <point x="651" y="1456" type="move" name="top"/>
    </contour>
  </outline>
</glyph>
<glyph name="Z" format="1">
  <advance width="1195"/>
  <unicode hex="005A"/>
  <outline>
    <contour>
      <point x="664" y="1456" type="move" name="top"/>
    </contour>
    <contour>
      <point x="647" y="0" type="move" name="bot"/>
    </contour>
    <contour>
      <point x="112" y="0" type="line"/>
      <point x="1104" y="0" type="line"/>
      <point x="1113" y="116" type="line"/>
      <point x="281" y="116" type="line"/>
      <point x="1106" y="1353" type="line"/>
      <point x="1097" y="1456" type="line"/>
      <point x="150" y="1456" type="line"/>
      <point x="152" y="1340" type="line"/>
      <point x="936" y="1340" type="line"/>
      <point x="112" y="110" type="line"/>
    </contour>
  </outline>
</glyph>
<glyph name="backslash" format="1">
  <advance width="954"/>
  <unicode hex="005C"/>
  <outline>
    <contour>
      <point x="675" y="-39" type="line"/>
      <point x="784" y="-39" type="line"/>
      <point x="222" y="1471" type="line"/>
      <point x="114" y="1471" type="line"/>
    </contour>
  </outline>
</glyph>
<glyph name="asciicircum" format="1">
  <advance width="1277"/>
  <unicode hex="005E"/>
  <outline>
    <contour>
      <point x="118" y="323" type="line"/>
      <point x="252" y="323" type="line"/>
      <point x="636" y="1256" type="line"/>
      <point x="1023" y="323" type="line"/>
      <point x="1159" y="323" type="line"/>
      <point x="672" y="1456" type="line"/>
      <point x="596" y="1456" type="line"/>
    </contour>
  </outline>
</glyph>
<glyph name="a" format="1">
  <advance width="1121"/>
  <unicode hex="0061"/>
  <outline>
    <contour>
      <point x="554" y="1083" type="move" name="top"/>
    </contour>
    <contour>
      <point x="899" y="1" type="move" name="ogonek"/>
    </contour>
    <contour>
      <point x="517" y="1" type="move" name="bot"/>
    </contour>
    <contour>
      <point x="455" y="-18" type="curve" smooth="yes"/>
      <point x="593" y="-18"/>
      <point x="717" y="21"/>
      <point x="822" y="152" type="curve"/>
      <point x="837" y="0" type="line"/>
      <point x="956" y="0" type="line"/>
      <point x="956" y="716" type="line" smooth="yes"/>
      <point x="956" y="1004"/>
      <point x="791" y="1104"/>
      <point x="550" y="1104" type="curve" smooth="yes"/>
      <point x="415" y="1104"/>
      <point x="259" y="1068"/>
      <point x="163" y="1008" type="curve"/>
      <point x="210" y="897" type="line"/>
      <point x="309" y="962"/>
      <point x="443" y="993"/>
      <point x="549" y="993" type="curve" smooth="yes"/>
      <point x="721" y="993"/>
      <point x="809" y="909"/>
      <point x="809" y="733" type="curve" smooth="yes"/>
      <point x="809" y="600" type="line"/>
      <point x="575" y="603" type="line" smooth="yes"/>
      <point x="249" y="603"/>
      <point x="115" y="489"/>
      <point x="115" y="287" type="curve" smooth="yes"/>
      <point x="115" y="88"/>
      <point x="253" y="-18"/>
    </contour>
    <contour>
      <point x="474" y="89" type="curve" smooth="yes"/>
      <point x="356" y="89"/>
      <point x="258" y="144"/>
      <point x="258" y="286" type="curve" smooth="yes"/>
      <point x="258" y="429"/>
      <point x="325" y="506"/>
      <point x="599" y="506" type="curve" smooth="yes"/>
      <point x="809" y="504" type="line"/>
      <point x="809" y="257" type="line"/>
      <point x="719" y="137"/>
      <point x="605" y="89"/>
    </contour>
  </outline>
</glyph>
<glyph name="c" format="1">
  <advance width="1088"/>
  <unicode hex="0063"/>
  <outline>
    <contour>
      <point x="619" y="1083" type="move" name="top"/>
    </contour>
    <contour>
      <point x="608" y="1" type="move" name="bot"/>
    </contour>
    <contour>
      <point x="603" y="-20" type="curve" smooth="yes"/>
      <point x="822" y="-20"/>
      <point x="948" y="92"/>
      <point x="991" y="222" type="curve"/>
      <point x="902" y="268" type="line"/>
      <point x="887" y="268" type="line"/>
      <point x="841" y="161"/>
      <point x="749" y="90"/>
      <point x="607" y="90" type="curve" smooth="yes"/>
      <point x="389" y="90"/>
      <point x="270" y="261"/>
      <point x="270" y="542" type="curve" smooth="yes"/>
      <point x="270" y="824"/>
      <point x="389" y="995"/>
      <point x="608" y="995" type="curve" smooth="yes"/>
      <point x="749" y="995"/>
      <point x="842" y="922"/>
      <point x="887" y="815" type="curve"/>
      <point x="901" y="815" type="line"/>
      <point x="991" y="863" type="line"/>
      <point x="947" y="992"/>
      <point x="822" y="1104"/>
      <point x="603" y="1104" type="curve" smooth="yes"/>
      <point x="305" y="1104"/>
      <point x="119" y="887"/>
      <point x="119" y="542" type="curve" smooth="yes"/>
      <point x="119" y="197"/>
      <point x="305" y="-20"/>
    </contour>
  </outline>
</glyph>
<glyph name="d" format="1">
  <advance width="1233"/>
  <unicode hex="0064"/>
  <outline>
    <contour>
      <point x="584" y="-20" type="curve" smooth="yes"/>
      <point x="717" y="-20"/>
      <point x="845" y="36"/>
      <point x="920" y="141" type="curve"/>
      <point x="930" y="0" type="line"/>
      <point x="1055" y="0" type="line"/>
      <point x="1055" y="1560" type="line"/>
      <point x="903" y="1540" type="line"/>
      <point x="903" y="1164" type="line"/>
      <point x="909" y="957" type="line"/>
      <point x="849" y="1045"/>
      <point x="742" y="1103"/>
      <point x="592" y="1103" type="curve"/>
      <point x="296" y="1103"/>
      <point x="119" y="884"/>
      <point x="119" y="546" type="curve" smooth="yes"/>
      <point x="119" y="206"/>
      <point x="287" y="-20"/>
    </contour>
    <contour>
      <point x="596" y="89" type="curve" smooth="yes"/>
      <point x="383" y="89"/>
      <point x="270" y="262"/>
      <point x="270" y="547" type="curve" smooth="yes"/>
      <point x="270" y="826"/>
      <point x="387" y="995"/>
      <point x="600" y="995" type="curve" smooth="yes"/>
      <point x="734" y="995"/>
      <point x="847" y="936"/>
      <point x="907" y="819" type="curve"/>
      <point x="907" y="249" type="line"/>
      <point x="847" y="146"/>
      <point x="732" y="89"/>
    </contour>
    <contour>
      <point x="561" y="1082" type="move" name="top"/>
    </contour>
    <contour>
      <point x="1094" y="1157" type="move" name="caron.alt"/>
    </contour>
    <contour>
      <point x="982" y="1288" type="move" name="mid"/>
    </contour>
  </outline>
</glyph>
<glyph name="e" format="1">
  <advance width="1135"/>
  <unicode hex="0065"/>
  <outline>
    <contour>
      <point x="608" y="1082" type="move" name="top"/>
    </contour>
    <contour>
      <point x="830" y="32" type="move" name="ogonek"/>
    </contour>
    <contour>
      <point x="621" y="1" type="move" name="bot"/>
    </contour>
    <contour>
      <point x="627" y="-20" type="curve" smooth="yes"/>
      <point x="779" y="-20"/>
      <point x="901" y="23"/>
      <point x="994" y="81" type="curve"/>
      <point x="956" y="179" type="line"/>
      <point x="944" y="179" type="line"/>
      <point x="850" y="126"/>
      <point x="763" y="91"/>
      <point x="645" y="91" type="curve" smooth="yes"/>
      <point x="442" y="91"/>
      <point x="283" y="222"/>
      <point x="270" y="524" type="curve"/>
      <point x="1014" y="524" type="line"/>
      <point x="1014" y="526"/>
      <point x="1022" y="585"/>
      <point x="1022" y="617" type="curve" smooth="yes"/>
      <point x="1022" y="919"/>
      <point x="871" y="1104"/>
      <point x="612" y="1104" type="curve" smooth="yes"/>
      <point x="347" y="1104"/>
      <point x="122" y="900"/>
      <point x="122" y="538" type="curve" smooth="yes"/>
      <point x="122" y="196"/>
      <point x="337" y="-20"/>
    </contour>
    <contour>
      <point x="274" y="619" type="line"/>
      <point x="294" y="845"/>
      <point x="424" y="995"/>
      <point x="621" y="995" type="curve" smooth="yes"/>
      <point x="809" y="995"/>
      <point x="893" y="860"/>
      <point x="898" y="619" type="curve"/>
    </contour>
  </outline>
</glyph>
<glyph name="f" format="1">
  <advance width="749"/>
  <unicode hex="0066"/>
  <outline>
    <contour>
      <point x="408" y="1456" type="move" name="top"/>
    </contour>
    <contour>
      <point x="272" y="0" type="line"/>
      <point x="420" y="0" type="line"/>
      <point x="420" y="995" type="line"/>
      <point x="686" y="995" type="line"/>
      <point x="686" y="1082" type="line"/>
      <point x="420" y="1082" type="line"/>
      <point x="420" y="1166" type="line" smooth="yes"/>
      <point x="420" y="1373"/>
      <point x="468" y="1409"/>
      <point x="598" y="1409" type="curve" smooth="yes"/>
      <point x="638" y="1409"/>
      <point x="702" y="1401"/>
      <point x="705" y="1401" type="curve"/>
      <point x="714" y="1499" type="line"/>
      <point x="708" y="1501"/>
      <point x="647" y="1515"/>
      <point x="561" y="1515" type="curve" smooth="yes"/>
      <point x="374" y="1515"/>
      <point x="272" y="1441"/>
      <point x="272" y="1166" type="curve" smooth="yes"/>
      <point x="272" y="1080" type="line"/>
      <point x="76" y="1065" type="line"/>
      <point x="71" y="995" type="line"/>
      <point x="272" y="995" type="line"/>
    </contour>
  </outline>
</glyph>
<glyph name="g" format="1">
  <advance width="1226"/>
  <unicode hex="0067"/>
  <outline>
    <contour>
      <point x="608" y="1082" type="move" name="top"/>
    </contour>
    <contour>
      <point x="565" y="-471" type="curve" smooth="yes"/>
      <point x="936" y="-471"/>
      <point x="1060" y="-283"/>
      <point x="1060" y="62" type="curve" smooth="yes"/>
      <point x="1060" y="1082" type="line"/>
      <point x="933" y="1082" type="line"/>
      <point x="925" y="944" type="line"/>
      <point x="863" y="1035"/>
      <point x="753" y="1104"/>
      <point x="597" y="1104" type="curve" smooth="yes"/>
      <point x="269" y="1104"/>
      <point x="116" y="847"/>
      <point x="116" y="542" type="curve" smooth="yes"/>
      <point x="116" y="242"/>
      <point x="268" y="-11"/>
      <point x="589" y="-11" type="curve" smooth="yes"/>
      <point x="730" y="-11"/>
      <point x="846" y="46"/>
      <point x="918" y="139" type="curve"/>
      <point x="919" y="30" type="line" smooth="yes"/>
      <point x="919" y="-258"/>
      <point x="805" y="-356"/>
      <point x="558" y="-356" type="curve" smooth="yes"/>
      <point x="462" y="-356"/>
      <point x="348" y="-334"/>
      <point x="278" y="-306" type="curve"/>
      <point x="260" y="-306" type="line"/>
      <point x="251" y="-421" type="line"/>
      <point x="319" y="-445"/>
      <point x="439" y="-471"/>
    </contour>
    <contour>
      <point x="597" y="97" type="curve" smooth="yes"/>
      <point x="362" y="97"/>
      <point x="266" y="306"/>
      <point x="266" y="543" type="curve" smooth="yes"/>
      <point x="266" y="783"/>
      <point x="364" y="995"/>
      <point x="597" y="995" type="curve" smooth="yes"/>
      <point x="771" y="995"/>
      <point x="862" y="899"/>
      <point x="916" y="808" type="curve"/>
      <point x="916" y="267" type="line"/>
      <point x="868" y="192"/>
      <point x="773" y="97"/>
    </contour>
  </outline>
</glyph>
<glyph name="h" format="1">
  <advance width="1203"/>
  <unicode hex="0068"/>
  <outline>
    <contour>
      <point x="176" y="0" type="line"/>
      <point x="323" y="0" type="line"/>
      <point x="323" y="620" type="line" smooth="yes"/>
      <point x="323" y="797"/>
      <point x="399" y="995"/>
      <point x="659" y="995" type="curve" smooth="yes"/>
      <point x="828" y="995"/>
      <point x="891" y="885"/>
      <point x="891" y="669" type="curve" smooth="yes"/>
      <point x="891" y="0" type="line"/>
      <point x="1040" y="0" type="line"/>
      <point x="1040" y="672" type="line" smooth="yes"/>
      <point x="1040" y="941"/>
      <point x="921" y="1104"/>
      <point x="686" y="1104" type="curve" smooth="yes"/>
      <point x="526" y="1104"/>
      <point x="392" y="1043"/>
      <point x="318" y="886" type="curve"/>
      <point x="324" y="1137" type="line"/>
      <point x="324" y="1560" type="line"/>
      <point x="176" y="1540" type="line"/>
    </contour>
    <contour>
      <point x="631" y="1353" type="move" name="top"/>
    </contour>
    <contour>
      <point x="273" y="1270" type="move" name="mid"/>
    </contour>
  </outline>
</glyph>
<glyph name="i" format="1">
  <advance width="551"/>
  <unicode hex="0069"/>
  <outline>
    <contour>
      <point x="215" y="0" type="line"/>
      <point x="363" y="0" type="line"/>
      <point x="363" y="1082" type="line"/>
      <point x="215" y="1082" type="line"/>
    </contour>
    <component base="dotaccent" xOffset="97"/>
    <contour>
      <point x="294" y="1082" type="move" name="top"/>
    </contour>
    <contour>
      <point x="289" y="0" type="move" name="ogonek"/>
    </contour>
  </outline>
</glyph>
<glyph name="l" format="1">
  <advance width="612"/>
  <unicode hex="006C"/>
  <outline>
    <contour>
      <point x="552" y="-6" type="line"/>
      <point x="565" y="100" type="line"/>
      <point x="496" y="111" type="line" smooth="yes"/>
      <point x="358" y="133"/>
      <point x="331" y="179"/>
      <point x="331" y="582" type="curve" smooth="yes"/>
      <point x="331" y="1560" type="line"/>
      <point x="183" y="1540" type="line"/>
      <point x="183" y="580" type="line" smooth="yes"/>
      <point x="183" y="76"/>
      <point x="282" y="20"/>
      <point x="477" y="1" type="curve" smooth="yes"/>
    </contour>
    <contour>
      <point x="349" y="1484" type="move" name="top"/>
    </contour>
    <contour>
      <point x="278" y="811" type="move" name="mid"/>
    </contour>
  </outline>
</glyph>
<glyph name="m" format="1">
  <advance width="1815"/>
  <unicode hex="006D"/>
  <outline>
    <contour>
      <point x="173" y="0" type="line"/>
      <point x="322" y="0" type="line"/>
      <point x="322" y="651" type="line"/>
      <point x="337" y="833"/>
      <point x="427" y="995"/>
      <point x="627" y="995" type="curve" smooth="yes"/>
      <point x="788" y="995"/>
      <point x="839" y="880"/>
      <point x="839" y="652" type="curve" smooth="yes"/>
      <point x="839" y="0" type="line"/>
      <point x="987" y="0" type="line"/>
      <point x="987" y="626" type="line" smooth="yes"/>
      <point x="988" y="838"/>
      <point x="1114" y="995"/>
      <point x="1296" y="995" type="curve" smooth="yes"/>
      <point x="1473" y="995"/>
      <point x="1505" y="844"/>
      <point x="1505" y="673" type="curve" smooth="yes"/>
      <point x="1505" y="0" type="line"/>
      <point x="1652" y="0" type="line"/>
      <point x="1652" y="683" type="line" smooth="yes"/>
      <point x="1652" y="965"/>
      <point x="1544" y="1104"/>
      <point x="1318" y="1104" type="curve" smooth="yes"/>
      <point x="1158" y="1104"/>
      <point x="1025" y="1027"/>
      <point x="959" y="855" type="curve"/>
      <point x="919" y="1010"/>
      <point x="816" y="1104"/>
      <point x="650" y="1104" type="curve" smooth="yes"/>
      <point x="503" y="1104"/>
      <point x="383" y="1035"/>
      <point x="313" y="882" type="curve"/>
      <point x="297" y="1082" type="line"/>
      <point x="173" y="1082" type="line"/>
    </contour>
    <contour>
      <point x="949" y="1082" type="move" name="top"/>
    </contour>
  </outline>
</glyph>
<glyph name="p" format="1">
  <advance width="1226"/>
  <unicode hex="0070"/>
  <outline>
    <contour>
      <point x="177" y="-470" type="line"/>
      <point x="324" y="-468" type="line"/>
      <point x="324" y="-80" type="line"/>
      <point x="317" y="132" type="line"/>
      <point x="385" y="34"/>
      <point x="499" y="-20"/>
      <point x="646" y="-20" type="curve" smooth="yes"/>
      <point x="928" y="-20"/>
      <point x="1108" y="201"/>
      <point x="1108" y="539" type="curve" smooth="yes"/>
      <point x="1108" y="890"/>
      <point x="955" y="1104"/>
      <point x="667" y="1104" type="curve" smooth="yes"/>
      <point x="488" y="1104"/>
      <point x="366" y="1006"/>
      <point x="312" y="846" type="curve"/>
      <point x="298" y="1082" type="line"/>
      <point x="177" y="1082" type="line"/>
    </contour>
    <contour>
      <point x="636" y="89" type="curve" smooth="yes"/>
      <point x="483" y="89"/>
      <point x="377" y="161"/>
      <point x="319" y="284" type="curve"/>
      <point x="319" y="568" type="line"/>
      <point x="320" y="812"/>
      <point x="413" y="995"/>
      <point x="651" y="995" type="curve" smooth="yes"/>
      <point x="867" y="995"/>
      <point x="956" y="821"/>
      <point x="956" y="540" type="curve" smooth="yes"/>
      <point x="956" y="258"/>
      <point x="850" y="89"/>
    </contour>
    <contour>
      <point x="665" y="1082" type="move" name="top"/>
    </contour>
  </outline>
</glyph>
<glyph name="q" format="1">
  <advance width="1222"/>
  <unicode hex="0071"/>
  <outline>
    <contour>
      <point x="902" y="-471" type="line"/>
      <point x="1049" y="-469" type="line"/>
      <point x="1049" y="1082" type="line"/>
      <point x="925" y="1082" type="line"/>
      <point x="917" y="930" type="line"/>
      <point x="861" y="1025"/>
      <point x="758" y="1104"/>
      <point x="595" y="1104" type="curve" smooth="yes"/>
      <point x="295" y="1104"/>
      <point x="118" y="878"/>
      <point x="118" y="544" type="curve" smooth="yes"/>
      <point x="118" y="210"/>
      <point x="291" y="-20"/>
      <point x="590" y="-20" type="curve" smooth="yes"/>
      <point x="721" y="-20"/>
      <point x="834" y="36"/>
      <point x="906" y="122" type="curve"/>
      <point x="902" y="-66" type="line"/>
    </contour>
    <contour>
      <point x="599" y="89" type="curve" smooth="yes"/>
      <point x="383" y="89"/>
      <point x="271" y="258"/>
      <point x="271" y="544" type="curve" smooth="yes"/>
      <point x="271" y="823"/>
      <point x="386" y="995"/>
      <point x="599" y="995" type="curve" smooth="yes"/>
      <point x="732" y="995"/>
      <point x="839" y="936"/>
      <point x="905" y="812" type="curve"/>
      <point x="905" y="252" type="line"/>
      <point x="850" y="149"/>
      <point x="737" y="89"/>
    </contour>
  </outline>
</glyph>
<glyph name="t" format="1">
  <advance width="782"/>
  <unicode hex="0074"/>
  <outline>
    <contour>
      <point x="313" y="1332" type="move" name="top"/>
    </contour>
    <contour>
      <point x="458" y="0" type="move" name="bot"/>
    </contour>
    <contour>
      <point x="358" y="629" type="move" name="mid"/>
    </contour>
    <contour>
      <point x="550" y="-9" type="curve" smooth="yes"/>
      <point x="587" y="-9"/>
      <point x="671" y="-4"/>
      <point x="671" y="-4" type="curve"/>
      <point x="676" y="96" type="line"/>
      <point x="676" y="96"/>
      <point x="583" y="95"/>
      <point x="555" y="95" type="curve" smooth="yes"/>
      <point x="415" y="99"/>
      <point x="381" y="135"/>
      <point x="381" y="305" type="curve" smooth="yes"/>
      <point x="381" y="994" type="line"/>
      <point x="685" y="994" type="line"/>
      <point x="685" y="1082" type="line"/>
      <point x="381" y="1082" type="line"/>
      <point x="381" y="1375" type="line"/>
      <point x="258" y="1365" type="line"/>
      <point x="236" y="1082" type="line"/>
      <point x="74" y="1072" type="line"/>
      <point x="72" y="994" type="line"/>
      <point x="233" y="994" type="line"/>
      <point x="233" y="302" type="line" smooth="yes"/>
      <point x="233" y="69"/>
      <point x="307" y="-9"/>
    </contour>
  </outline>
</glyph>
<glyph name="u" format="1">
  <advance width="1195"/>
  <unicode hex="0075"/>
  <outline>
    <contour>
      <point x="607" y="1083" type="move" name="top"/>
    </contour>
    <contour>
      <point x="955" y="1" type="move" name="ogonek"/>
    </contour>
    <contour>
      <point x="574" y="1" type="move" name="bot"/>
    </contour>
    <contour>
      <point x="545" y="-20" type="curve" smooth="yes"/>
      <point x="709" y="-20"/>
      <point x="811" y="37"/>
      <point x="884" y="140" type="curve"/>
      <point x="894" y="0" type="line"/>
      <point x="1022" y="0" type="line"/>
      <point x="1022" y="1082" type="line"/>
      <point x="874" y="1082" type="line"/>
      <point x="874" y="249" type="line"/>
      <point x="827" y="176"/>
      <point x="738" y="88"/>
      <point x="560" y="88" type="curve" smooth="yes"/>
      <point x="380" y="88"/>
      <point x="311" y="203"/>
      <point x="311" y="393" type="curve" smooth="yes"/>
      <point x="311" y="1082" type="line"/>
      <point x="162" y="1082" type="line"/>
      <point x="162" y="411" type="line" smooth="yes"/>
      <point x="162" y="120"/>
      <point x="295" y="-20"/>
    </contour>
  </outline>
</glyph>
<glyph name="x" format="1">
  <advance width="1040"/>
  <unicode hex="0078"/>
  <outline>
    <contour>
      <point x="50" y="-1" type="line"/>
      <point x="202" y="-1" type="line"/>
      <point x="516" y="445" type="line"/>
      <point x="825" y="-1" type="line"/>
      <point x="988" y="-1" type="line"/>
      <point x="610" y="546" type="line"/>
      <point x="987" y="1082" type="line"/>
      <point x="835" y="1082" type="line"/>
      <point x="539" y="651" type="line"/>
      <point x="240" y="1082" type="line"/>
      <point x="76" y="1082" type="line"/>
      <point x="444" y="550" type="line"/>
    </contour>
  </outline>
</glyph>
<glyph name="z" format="1">
  <advance width="966"/>
  <unicode hex="007A"/>
  <outline>
    <contour>
      <point x="497" y="1082" type="move" name="top"/>
    </contour>
    <contour>
      <point x="468" y="0" type="move" name="bot"/>
    </contour>
    <contour>
      <point x="109" y="0" type="line"/>
      <point x="855" y="0" type="line"/>
      <point x="850" y="106" type="line"/>
      <point x="262" y="106" type="line"/>
      <point x="847" y="983" type="line"/>
      <point x="847" y="1082" type="line"/>
      <point x="129" y="1082" type="line"/>
      <point x="132" y="979" type="line"/>
      <point x="700" y="979" type="line"/>
      <point x="109" y="96" type="line"/>
    </contour>
  </outline>
</glyph>
<glyph name="braceleft" format="1">
  <advance width="849"/>
  <unicode hex="007B"/>
  <outline>
    <contour>
      <point x="691" y="-271" type="curve"/>
      <point x="691" y="-172" type="line"/>
      <point x="541" y="-171"/>
      <point x="514" y="-131"/>
      <point x="514" y="70" type="curve" smooth="yes"/>
      <point x="514" y="329" type="line" smooth="yes"/>
      <point x="514" y="502"/>
      <point x="479" y="587"/>
      <point x="324" y="611" type="curve"/>
      <point x="479" y="635"/>
      <point x="514" y="719"/>
      <point x="514" y="892" type="curve" smooth="yes"/>
      <point x="514" y="1153" type="line" smooth="yes"/>
      <point x="514" y="1353"/>
      <point x="543" y="1393"/>
      <point x="694" y="1395" type="curve"/>
      <point x="694" y="1493" type="line"/>
      <point x="427" y="1493"/>
      <point x="372" y="1424"/>
      <point x="372" y="1164" type="curve" smooth="yes"/>
      <point x="372" y="960" type="line" smooth="yes"/>
      <point x="372" y="755"/>
      <point x="368" y="666"/>
      <point x="166" y="664" type="curve"/>
      <point x="166" y="557" type="line"/>
      <point x="369" y="556"/>
      <point x="372" y="467"/>
      <point x="372" y="261" type="curve" smooth="yes"/>
      <point x="372" y="58" type="line" smooth="yes"/>
      <point x="372" y="-202"/>
      <point x="424" y="-271"/>
    </contour>
  </outline>
</glyph>
<glyph name="braceright" format="1">
  <advance width="849"/>
  <unicode hex="007D"/>
  <outline>
    <contour>
      <point x="127" y="-271" type="line"/>
      <point x="394" y="-271"/>
      <point x="446" y="-202"/>
      <point x="446" y="58" type="curve" smooth="yes"/>
      <point x="446" y="261" type="line" smooth="yes"/>
      <point x="446" y="467"/>
      <point x="450" y="556"/>
      <point x="653" y="557" type="curve"/>
      <point x="653" y="664" type="line"/>
      <point x="451" y="666"/>
      <point x="446" y="755"/>
      <point x="446" y="960" type="curve" smooth="yes"/>
      <point x="446" y="1164" type="line" smooth="yes"/>
      <point x="446" y="1424"/>
      <point x="391" y="1493"/>
      <point x="124" y="1493" type="curve"/>
      <point x="124" y="1395" type="line"/>
      <point x="275" y="1393"/>
      <point x="304" y="1353"/>
      <point x="304" y="1153" type="curve" smooth="yes"/>
      <point x="304" y="892" type="line" smooth="yes"/>
      <point x="304" y="719"/>
      <point x="339" y="635"/>
      <point x="494" y="611" type="curve"/>
      <point x="339" y="587"/>
      <point x="304" y="502"/>
      <point x="304" y="329" type="curve" smooth="yes"/>
      <point x="304" y="70" type="line" smooth="yes"/>
      <point x="304" y="-131"/>
      <point x="278" y="-171"/>
      <point x="127" y="-172" type="curve"/>
    </contour>
  </outline>
</glyph>
<glyph name="asciitilde" format="1">
  <advance width="1202"/>
  <unicode hex="007E"/>
  <outline>
    <contour>
      <point x="144" y="513" type="line"/>
      <point x="189" y="607"/>
      <point x="260" y="666"/>
      <point x="350" y="666" type="curve" smooth="yes"/>
      <point x="416" y="666"/>
      <point x="501" y="627"/>
      <point x="603" y="583" type="curve" smooth="yes"/>
      <point x="684" y="547"/>
      <point x="766" y="515"/>
      <point x="829" y="515" type="curve" smooth="yes"/>
      <point x="949" y="515"/>
      <point x="1018" y="588"/>
      <point x="1066" y="716" type="curve"/>
      <point x="1013" y="784" type="line"/>
      <point x="978" y="693"/>
      <point x="913" y="628"/>
      <point x="829" y="628" type="curve" smooth="yes"/>
      <point x="767" y="628"/>
      <point x="684" y="671"/>
      <point x="586" y="713" type="curve" smooth="yes"/>
      <point x="483" y="759"/>
      <point x="431" y="781"/>
      <point x="352" y="781" type="curve" smooth="yes"/>
      <point x="228" y="781"/>
      <point x="141" y="696"/>
      <point x="96" y="585" type="curve"/>
    </contour>
  </outline>
</glyph>
<glyph name="cent" format="1">
  <advance width="1054"/>
  <unicode hex="00A2"/>
  <outline>
    <contour>
      <point x="541" y="-301" type="line"/>
      <point x="643" y="-301" type="line"/>
      <point x="655" y="27" type="line"/>
      <point x="541" y="27" type="line"/>
    </contour>
    <contour>
      <point x="541" y="1061" type="line"/>
      <point x="648" y="1061" type="line"/>
      <point x="649" y="1382" type="line"/>
      <point x="548" y="1382" type="line"/>
    </contour>
    <component base="c"/>
  </outline>
</glyph>
<glyph name="sterling" format="1">
  <advance width="1179"/>
  <unicode hex="00A3"/>
  <outline>
    <contour>
      <point x="113" y="0" type="line"/>
      <point x="1029" y="0" type="line"/>
      <point x="1039" y="113" type="line"/>
      <point x="429" y="113" type="line"/>
      <point x="429" y="686" type="line"/>
      <point x="827" y="686" type="line"/>
      <point x="827" y="788" type="line"/>
      <point x="429" y="788" type="line"/>
      <point x="429" y="949" type="line" smooth="yes"/>
      <point x="429" y="1210"/>
      <point x="507" y="1360"/>
      <point x="704" y="1360" type="curve" smooth="yes"/>
      <point x="813" y="1360"/>
      <point x="888" y="1317"/>
      <point x="965" y="1255" type="curve"/>
      <point x="978" y="1255" type="line"/>
      <point x="1034" y="1350" type="line"/>
      <point x="964" y="1414"/>
      <point x="859" y="1480"/>
      <point x="694" y="1480" type="curve" smooth="yes"/>
      <point x="342" y="1480"/>
      <point x="282" y="1199"/>
      <point x="282" y="920" type="curve" smooth="yes"/>
      <point x="282" y="788" type="line"/>
      <point x="102" y="788" type="line"/>
      <point x="102" y="686" type="line"/>
      <point x="282" y="686" type="line"/>
      <point x="282" y="111" type="line"/>
      <point x="101" y="95" type="line"/>
    </contour>
  </outline>
</glyph>
<glyph name="currency" format="1">
  <advance width="1274"/>
  <unicode hex="00A4"/>
  <outline>
    <contour>
      <point x="1077" y="226" type="line"/>
      <point x="1129" y="285" type="line"/>
      <point x="949" y="463" type="line"/>
      <point x="1004" y="534"/>
      <point x="1032" y="619"/>
      <point x="1032" y="715" type="curve" smooth="yes"/>
      <point x="1032" y="804"/>
      <point x="1005" y="891"/>
      <point x="948" y="968" type="curve"/>
      <point x="1130" y="1144" type="line"/>
      <point x="1077" y="1203" type="line"/>
      <point x="894" y="1029" type="line"/>
      <point x="822" y="1090"/>
      <point x="729" y="1126"/>
      <point x="629" y="1126" type="curve" smooth="yes"/>
      <point x="529" y="1126"/>
      <point x="436" y="1093"/>
      <point x="363" y="1030" type="curve"/>
      <point x="181" y="1203" type="line"/>
      <point x="125" y="1147" type="line"/>
      <point x="309" y="968" type="line"/>
      <point x="253" y="895"/>
      <point x="225" y="808"/>
      <point x="225" y="715" type="curve" smooth="yes"/>
      <point x="225" y="622"/>
      <point x="253" y="536"/>
      <point x="309" y="463" type="curve"/>
      <point x="126" y="286" type="line"/>
      <point x="181" y="227" type="line"/>
      <point x="364" y="402" type="line"/>
      <point x="437" y="339"/>
      <point x="527" y="306"/>
      <point x="629" y="306" type="curve" smooth="yes"/>
      <point x="731" y="306"/>
      <point x="821" y="339"/>
      <point x="894" y="401" type="curve"/>
    </contour>
    <contour>
      <point x="629" y="384" type="curve" smooth="yes"/>
      <point x="431" y="384"/>
      <point x="311" y="536"/>
      <point x="311" y="715" type="curve" smooth="yes"/>
      <point x="311" y="894"/>
      <point x="431" y="1048"/>
      <point x="629" y="1048" type="curve" smooth="yes"/>
      <point x="827" y="1048"/>
      <point x="947" y="893"/>
      <point x="947" y="715" type="curve" smooth="yes"/>
      <point x="947" y="537"/>
      <point x="828" y="384"/>
    </contour>
  </outline>
</glyph>
<glyph name="yen" format="1">
  <advance width="1311"/>
  <unicode hex="00A5"/>
  <outline>
    <contour>
      <point x="257" y="284" type="line"/>
      <point x="1045" y="284" type="line"/>
      <point x="1045" y="375" type="line"/>
      <point x="257" y="375" type="line"/>
    </contour>
    <contour>
      <point x="257" y="555" type="line"/>
      <point x="1045" y="555" type="line"/>
      <point x="1045" y="647" type="line"/>
      <point x="257" y="647" type="line"/>
    </contour>
    <component base="Y"/>
  </outline>
</glyph>
<glyph name="copyright" format="1">
  <advance width="1808"/>
  <unicode hex="00A9"/>
  <outline>
    <contour>
      <point x="875" y="232" type="curve" smooth="yes"/>
      <point x="971" y="232"/>
      <point x="1070" y="259"/>
      <point x="1160" y="316" type="curve"/>
      <point x="1129" y="396" type="line"/>
      <point x="1038" y="340"/>
      <point x="960" y="322"/>
      <point x="876" y="322" type="curve" smooth="yes"/>
      <point x="669" y="322"/>
      <point x="498" y="481"/>
      <point x="498" y="747" type="curve" smooth="yes"/>
      <point x="498" y="987"/>
      <point x="668" y="1156"/>
      <point x="868" y="1156" type="curve" smooth="yes"/>
      <point x="942" y="1156"/>
      <point x="1040" y="1130"/>
      <point x="1116" y="1071" type="curve"/>
      <point x="1157" y="1155" type="line"/>
      <point x="1064" y="1217"/>
      <point x="964" y="1248"/>
      <point x="864" y="1248" type="curve" smooth="yes"/>
      <point x="605" y="1248"/>
      <point x="379" y="1034"/>
      <point x="379" y="740" type="curve" smooth="yes"/>
      <point x="379" y="440"/>
      <point x="611" y="232"/>
    </contour>
    <contour>
      <point x="846" y="46" type="curve" smooth="yes"/>
      <point x="510" y="46"/>
      <point x="168" y="275"/>
      <point x="168" y="741" type="curve" smooth="yes"/>
      <point x="168" y="1208"/>
      <point x="510" y="1437"/>
      <point x="846" y="1437" type="curve" smooth="yes"/>
      <point x="1183" y="1437"/>
      <point x="1529" y="1208"/>
      <point x="1529" y="741" type="curve" smooth="yes"/>
      <point x="1529" y="276"/>
      <point x="1183" y="46"/>
    </contour>
    <contour>
      <point x="846" y="-33" type="curve" smooth="yes"/>
      <point x="1232" y="-33"/>
      <point x="1630" y="222"/>
      <point x="1630" y="741" type="curve" smooth="yes"/>
      <point x="1630" y="1262"/>
      <point x="1231" y="1517"/>
      <point x="846" y="1517" type="curve" smooth="yes"/>
      <point x="462" y="1517"/>
      <point x="71" y="1262"/>
      <point x="71" y="741" type="curve" smooth="yes"/>
      <point x="71" y="222"/>
      <point x="462" y="-33"/>
    </contour>
  </outline>
</glyph>
<glyph name="guillemotleft" format="1">
  <advance width="1003"/>
  <unicode hex="00AB"/>
  <outline>
    <contour>
      <point x="385" y="153" type="line"/>
      <point x="505" y="158" type="line"/>
      <point x="238" y="548" type="line"/>
      <point x="513" y="935" type="line"/>
      <point x="389" y="940" type="line"/>
      <point x="105" y="545" type="line"/>
    </contour>
    <contour>
      <point x="727" y="153" type="line"/>
      <point x="847" y="158" type="line"/>
      <point x="579" y="548" type="line"/>
      <point x="854" y="935" type="line"/>
      <point x="730" y="940" type="line"/>
      <point x="447" y="545" type="line"/>
    </contour>
  </outline>
</glyph>
<glyph name="logicalnot" format="1">
  <advance width="1235"/>
  <unicode hex="00AC"/>
  <outline>
    <contour>
      <point x="958" y="257" type="line"/>
      <point x="1063" y="257" type="line"/>
      <point x="1063" y="797" type="line"/>
      <point x="107" y="797" type="line"/>
      <point x="107" y="686" type="line"/>
      <point x="958" y="686" type="line"/>
    </contour>
  </outline>
</glyph>
<glyph name="uni00AD" format="1">
  <advance width="989"/>
  <unicode hex="00AD"/>
  <outline>
    <contour>
      <point x="121" y="339" type="line"/>
      <point x="862" y="339" type="line"/>
      <point x="862" y="453" type="line"/>
      <point x="121" y="453" type="line"/>
    </contour>
  </outline>
</glyph>
<glyph name="macron" format="1">
  <advance width="1179"/>
  <unicode hex="00AF"/>
  <outline>
    <contour>
      <point x="589" y="1072" type="move" name="_top"/>
    </contour>
    <contour>
      <point x="569" y="1388" type="move" name="_mid"/>
    </contour>
    <contour>
      <point x="301" y="1349" type="line"/>
      <point x="841" y="1349" type="line"/>
      <point x="841" y="1430" type="line"/>
      <point x="301" y="1430" type="line"/>
    </contour>
  </outline>
</glyph>
<glyph name="degree" format="1">
  <advance width="867"/>
  <unicode hex="00B0"/>
  <outline>
    <contour>
      <point x="428" y="991" type="curve" smooth="yes"/>
      <point x="315" y="991"/>
      <point x="227" y="1075"/>
      <point x="227" y="1196" type="curve" smooth="yes"/>
      <point x="227" y="1317"/>
      <point x="317" y="1401"/>
      <point x="428" y="1401" type="curve" smooth="yes"/>
      <point x="542" y="1401"/>
      <point x="632" y="1317"/>
      <point x="632" y="1196" type="curve" smooth="yes"/>
      <point x="632" y="1076"/>
      <point x="542" y="991"/>
    </contour>
    <contour>
      <point x="427" y="904" type="curve" smooth="yes"/>
      <point x="585" y="904"/>
      <point x="729" y="1027"/>
      <point x="729" y="1197" type="curve" smooth="yes"/>
      <point x="729" y="1371"/>
      <point x="582" y="1486"/>
      <point x="427" y="1486" type="curve" smooth="yes"/>
      <point x="277" y="1486"/>
      <point x="129" y="1371"/>
      <point x="129" y="1197" type="curve" smooth="yes"/>
      <point x="129" y="1019"/>
      <point x="278" y="904"/>
    </contour>
  </outline>
</glyph>
<glyph name="plusminus" format="1">
  <advance width="1149"/>
  <unicode hex="00B1"/>
  <outline>
    <contour>
      <point x="510" y="203" type="line"/>
      <point x="620" y="203" type="line"/>
      <point x="620" y="604" type="line"/>
      <point x="989" y="604" type="line"/>
      <point x="989" y="702" type="line"/>
      <point x="620" y="702" type="line"/>
      <point x="620" y="1094" type="line"/>
      <point x="510" y="1094" type="line"/>
      <point x="510" y="702" type="line"/>
      <point x="134" y="702" type="line"/>
      <point x="134" y="604" type="line"/>
      <point x="510" y="604" type="line"/>
    </contour>
    <contour>
      <point x="108" y="0" type="line"/>
      <point x="1043" y="0" type="line"/>
      <point x="1043" y="102" type="line"/>
      <point x="108" y="102" type="line"/>
    </contour>
  </outline>
</glyph>
<glyph name="uni00B2" format="1">
  <advance width="765"/>
  <unicode hex="00B2"/>
  <outline>
    <contour>
      <point x="150" y="666" type="line"/>
      <point x="650" y="666" type="line"/>
      <point x="655" y="754" type="line"/>
      <point x="301" y="754" type="line"/>
      <point x="401" y="854"/>
      <point x="434" y="883"/>
      <point x="504" y="954" type="curve" smooth="yes"/>
      <point x="605" y="1058"/>
      <point x="656" y="1139"/>
      <point x="656" y="1255" type="curve" smooth="yes"/>
      <point x="656" y="1421"/>
      <point x="534" y="1509"/>
      <point x="392" y="1509" type="curve" smooth="yes"/>
      <point x="260" y="1509"/>
      <point x="163" y="1461"/>
      <point x="94" y="1374" type="curve"/>
      <point x="151" y="1305" type="line"/>
      <point x="209" y="1375"/>
      <point x="283" y="1416"/>
      <point x="389" y="1416" type="curve" smooth="yes"/>
      <point x="487" y="1416"/>
      <point x="551" y="1350"/>
      <point x="551" y="1253" type="curve" smooth="yes"/>
      <point x="551" y="1187"/>
      <point x="508" y="1118"/>
      <point x="425" y="1023" type="curve" smooth="yes"/>
      <point x="322" y="912"/>
      <point x="258" y="862"/>
      <point x="150" y="755" type="curve"/>
    </contour>
  </outline>
</glyph>
<glyph name="acute" format="1">
  <advance width="711"/>
  <unicode hex="00B4"/>
  <outline>
    <contour>
      <point x="306" y="1082" type="move" name="_top"/>
    </contour>
    <contour>
      <point x="257" y="1229" type="line"/>
      <point x="350" y="1229" type="line"/>
      <point x="635" y="1596" type="line"/>
      <point x="460" y="1596" type="line"/>
    </contour>
  </outline>
</glyph>
<glyph name="uni00B5" format="1">
  <advance width="1185"/>
  <unicode hex="00B5"/>
  <outline>
    <contour>
      <point x="1022" y="1082" type="line"/>
      <point x="874" y="1082" type="line"/>
      <point x="874" y="249" type="line"/>
      <point x="827" y="176"/>
      <point x="738" y="88"/>
      <point x="560" y="88" type="curve" smooth="yes"/>
      <point x="380" y="88"/>
      <point x="311" y="203"/>
      <point x="311" y="393" type="curve" smooth="yes"/>
      <point x="311" y="1082" type="line"/>
      <point x="162" y="1082" type="line"/>
      <point x="162" y="-316" type="line"/>
      <point x="311" y="-316" type="line"/>
      <point x="311" y="48" type="line"/>
      <point x="370" y="2"/>
      <point x="448" y="-20"/>
      <point x="545" y="-20" type="curve" smooth="yes"/>
      <point x="709" y="-20"/>
      <point x="811" y="37"/>
      <point x="884" y="140" type="curve"/>
      <point x="894" y="0" type="line"/>
      <point x="1022" y="0" type="line"/>
    </contour>
  </outline>
</glyph>
<glyph name="periodcentered" format="1">
  <advance width="556"/>
  <unicode hex="00B7"/>
  <outline>
    <contour>
      <point x="284" y="523" type="curve" smooth="yes"/>
      <point x="350" y="523"/>
      <point x="385" y="569"/>
      <point x="385" y="624" type="curve" smooth="yes"/>
      <point x="385" y="679"/>
      <point x="350" y="724"/>
      <point x="284" y="724" type="curve" smooth="yes"/>
      <point x="216" y="724"/>
      <point x="182" y="679"/>
      <point x="182" y="624" type="curve" smooth="yes"/>
      <point x="182" y="569"/>
      <point x="218" y="523"/>
    </contour>
  </outline>
</glyph>
<glyph name="cedilla" format="1">
  <advance width="661"/>
  <unicode hex="00B8"/>
  <outline>
    <contour>
      <point x="364" y="7" type="move" name="_bot"/>
    </contour>
    <contour>
      <point x="322" y="-396" type="curve" smooth="yes"/>
      <point x="466" y="-396"/>
      <point x="572" y="-320"/>
      <point x="572" y="-201" type="curve" smooth="yes"/>
      <point x="572" y="-93"/>
      <point x="495" y="-41"/>
      <point x="402" y="-41" type="curve" smooth="yes"/>
      <point x="370" y="-41"/>
      <point x="335" y="-47"/>
      <point x="302" y="-60" type="curve"/>
      <point x="303" y="-105" type="line"/>
      <point x="327" y="-100"/>
      <point x="347" y="-99"/>
      <point x="365" y="-99" type="curve" smooth="yes"/>
      <point x="459" y="-99"/>
      <point x="481" y="-153"/>
      <point x="481" y="-198" type="curve" smooth="yes"/>
      <point x="481" y="-282"/>
      <point x="406" y="-322"/>
      <point x="322" y="-322" type="curve" smooth="yes"/>
      <point x="280" y="-322"/>
      <point x="235" y="-313"/>
      <point x="195" y="-292" type="curve"/>
      <point x="168" y="-364" type="line"/>
      <point x="216" y="-385"/>
      <point x="267" y="-396"/>
    </contour>
  </outline>
</glyph>
<glyph name="guillemotright" format="1">
  <advance width="986"/>
  <unicode hex="00BB"/>
  <outline>
    <contour>
      <point x="243" y="153" type="line"/>
      <point x="525" y="546" type="line"/>
      <point x="243" y="940" type="line"/>
      <point x="121" y="935" type="line"/>
      <point x="393" y="546" type="line"/>
      <point x="121" y="158" type="line"/>
    </contour>
    <contour>
      <point x="584" y="153" type="line"/>
      <point x="866" y="546" type="line"/>
      <point x="584" y="940" type="line"/>
      <point x="462" y="935" type="line"/>
      <point x="734" y="546" type="line"/>
      <point x="463" y="158" type="line"/>
    </contour>
  </outline>
</glyph>
<glyph name="onequarter" format="1">
  <advance width="1698"/>
  <unicode hex="00BC"/>
  <outline>
    <contour>
      <point x="126" y="629" type="line"/>
      <point x="540" y="629" type="line"/>
      <point x="540" y="722" type="line"/>
      <point x="399" y="722" type="line"/>
      <point x="399" y="1492" type="line"/>
      <point x="303" y="1492" type="line"/>
      <point x="261" y="1451"/>
      <point x="159" y="1407"/>
      <point x="117" y="1390" type="curve"/>
      <point x="117" y="1294" type="line"/>
      <point x="155" y="1309"/>
      <point x="244" y="1345"/>
      <point x="281" y="1369" type="curve"/>
      <point x="281" y="722" type="line"/>
      <point x="126" y="722" type="line"/>
    </contour>
    <contour>
      <point x="1385" y="0" type="line"/>
      <point x="1494" y="0" type="line"/>
      <point x="1494" y="201" type="line"/>
      <point x="1617" y="201" type="line"/>
      <point x="1611" y="290" type="line"/>
      <point x="1496" y="290" type="line"/>
      <point x="1496" y="847" type="line"/>
      <point x="1375" y="847" type="line"/>
      <point x="986" y="279" type="line"/>
      <point x="986" y="201" type="line"/>
      <point x="1385" y="201" type="line"/>
    </contour>
    <contour>
      <point x="382" y="0" type="line"/>
      <point x="499" y="0" type="line"/>
      <point x="1397" y="1497" type="line"/>
      <point x="1281" y="1497" type="line"/>
    </contour>
    <contour>
      <point x="1106" y="290" type="line"/>
      <point x="1385" y="707" type="line"/>
      <point x="1385" y="290" type="line"/>
    </contour>
  </outline>
</glyph>
<glyph name="onehalf" format="1">
  <advance width="1738"/>
  <unicode hex="00BD"/>
  <outline>
    <contour>
      <point x="1112" y="0" type="line"/>
      <point x="1622" y="0" type="line"/>
      <point x="1624" y="98" type="line"/>
      <point x="1251" y="98" type="line"/>
      <point x="1286" y="135"/>
      <point x="1427" y="264"/>
      <point x="1450" y="288" type="curve" smooth="yes"/>
      <point x="1573" y="405"/>
      <point x="1635" y="483"/>
      <point x="1635" y="607" type="curve" smooth="yes"/>
      <point x="1635" y="766"/>
      <point x="1515" y="859"/>
      <point x="1359" y="859" type="curve" smooth="yes"/>
      <point x="1234" y="859"/>
      <point x="1126" y="796"/>
      <point x="1071" y="694" type="curve"/>
      <point x="1141" y="630" type="line"/>
      <point x="1199" y="717"/>
      <point x="1271" y="756"/>
      <point x="1357" y="756" type="curve" smooth="yes"/>
      <point x="1449" y="756"/>
      <point x="1518" y="700"/>
      <point x="1518" y="603" type="curve" smooth="yes"/>
      <point x="1518" y="527"/>
      <point x="1483" y="467"/>
      <point x="1373" y="356" type="curve" smooth="yes"/>
      <point x="1348" y="329"/>
      <point x="1157" y="141"/>
      <point x="1110" y="93" type="curve"/>
    </contour>
    <contour>
      <point x="128" y="629" type="line"/>
      <point x="544" y="629" type="line"/>
      <point x="544" y="721" type="line"/>
      <point x="402" y="721" type="line"/>
      <point x="402" y="1492" type="line"/>
      <point x="307" y="1492" type="line"/>
      <point x="264" y="1451"/>
      <point x="162" y="1407"/>
      <point x="120" y="1390" type="curve"/>
      <point x="120" y="1296" type="line"/>
      <point x="158" y="1310"/>
      <point x="247" y="1347"/>
      <point x="284" y="1371" type="curve"/>
      <point x="284" y="721" type="line"/>
      <point x="128" y="721" type="line"/>
    </contour>
    <contour>
      <point x="376" y="0" type="line"/>
      <point x="491" y="0" type="line"/>
      <point x="1390" y="1497" type="line"/>
      <point x="1275" y="1497" type="line"/>
    </contour>
  </outline>
</glyph>
<glyph name="threequarters" format="1">
  <advance width="1735"/>
  <unicode hex="00BE"/>
  <outline>
    <contour>
      <point x="355" y="620" type="curve" smooth="yes"/>
      <point x="499" y="620"/>
      <point x="632" y="698"/>
      <point x="632" y="869" type="curve" smooth="yes"/>
      <point x="632" y="970"/>
      <point x="568" y="1051"/>
      <point x="465" y="1078" type="curve"/>
      <point x="566" y="1099"/>
      <point x="614" y="1191"/>
      <point x="614" y="1274" type="curve" smooth="yes"/>
      <point x="614" y="1423"/>
      <point x="497" y="1491"/>
      <point x="365" y="1491" type="curve" smooth="yes"/>
      <point x="281" y="1491"/>
      <point x="190" y="1462"/>
      <point x="121" y="1409" type="curve"/>
      <point x="167" y="1330" type="line"/>
      <point x="232" y="1372"/>
      <point x="301" y="1394"/>
      <point x="359" y="1394" type="curve" smooth="yes"/>
      <point x="442" y="1394"/>
      <point x="502" y="1351"/>
      <point x="502" y="1262" type="curve" smooth="yes"/>
      <point x="502" y="1174"/>
      <point x="441" y="1121"/>
      <point x="331" y="1121" type="curve" smooth="yes"/>
      <point x="243" y="1121" type="line"/>
      <point x="243" y="1024" type="line"/>
      <point x="332" y="1025" type="line"/>
      <point x="456" y="1025"/>
      <point x="517" y="968"/>
      <point x="517" y="866" type="curve" smooth="yes"/>
      <point x="517" y="760"/>
      <point x="443" y="718"/>
      <point x="354" y="718" type="curve" smooth="yes"/>
      <point x="291" y="718"/>
      <point x="220" y="739"/>
      <point x="163" y="775" type="curve"/>
      <point x="123" y="692" type="line"/>
      <point x="189" y="645"/>
      <point x="273" y="620"/>
    </contour>
    <contour>
      <point x="1422" y="0" type="line"/>
      <point x="1531" y="0" type="line"/>
      <point x="1531" y="201" type="line"/>
      <point x="1654" y="201" type="line"/>
      <point x="1647" y="290" type="line"/>
      <point x="1532" y="290" type="line"/>
      <point x="1532" y="847" type="line"/>
      <point x="1412" y="847" type="line"/>
      <point x="1022" y="279" type="line"/>
      <point x="1022" y="201" type="line"/>
      <point x="1422" y="201" type="line"/>
    </contour>
    <contour>
      <point x="424" y="0" type="line"/>
      <point x="541" y="0" type="line"/>
      <point x="1439" y="1497" type="line"/>
      <point x="1323" y="1497" type="line"/>
    </contour>
    <contour>
      <point x="1143" y="290" type="line"/>
      <point x="1422" y="707" type="line"/>
      <point x="1422" y="290" type="line"/>
    </contour>
  </outline>
</glyph>
<glyph name="multiply" format="1">
  <advance width="941"/>
  <unicode hex="00D7"/>
  <outline>
    <contour>
      <point x="416" y="263" type="line"/>
      <point x="489" y="562" type="line"/>
      <point x="767" y="484" type="line"/>
      <point x="799" y="567" type="line"/>
      <point x="799" y="567"/>
      <point x="541" y="630"/>
      <point x="526" y="646" type="curve"/>
      <point x="596" y="939" type="line"/>
      <point x="513" y="978" type="line"/>
      <point x="447" y="685" type="line"/>
      <point x="174" y="758" type="line"/>
      <point x="138" y="677" type="line"/>
      <point x="411" y="601" type="line"/>
      <point x="337" y="302" type="line"/>
    </contour>
  </outline>
</glyph>
<glyph name="Oslash" format="1">
  <advance width="1643"/>
  <unicode hex="00D8"/>
  <outline>
    <contour>
      <point x="819" y="1456" type="move" name="top"/>
    </contour>
    <contour>
      <point x="505" y="-238" type="line"/>
      <point x="600" y="7" type="line"/>
      <point x="665" y="-10"/>
      <point x="738" y="-20"/>
      <point x="818" y="-20" type="curve" smooth="yes"/>
      <point x="1268" y="-20"/>
      <point x="1477" y="280"/>
      <point x="1477" y="715" type="curve" smooth="yes"/>
      <point x="1477" y="1040"/>
      <point x="1364" y="1288"/>
      <point x="1143" y="1403" type="curve"/>
      <point x="1239" y="1650" type="line"/>
      <point x="1151" y="1682" type="line"/>
      <point x="1057" y="1439" type="line"/>
      <point x="987" y="1463"/>
      <point x="908" y="1475"/>
      <point x="819" y="1475" type="curve" smooth="yes"/>
      <point x="372" y="1475"/>
      <point x="153" y="1176"/>
      <point x="153" y="718" type="curve" smooth="yes"/>
      <point x="153" y="387"/>
      <point x="269" y="139"/>
      <point x="516" y="35" type="curve"/>
      <point x="423" y="-208" type="line"/>
    </contour>
    <contour>
      <point x="563" y="156" type="line"/>
      <point x="381" y="248"/>
      <point x="309" y="454"/>
      <point x="309" y="718" type="curve" smooth="yes"/>
      <point x="309" y="1101"/>
      <point x="459" y="1355"/>
      <point x="818" y="1355" type="curve" smooth="yes"/>
      <point x="892" y="1355"/>
      <point x="957" y="1344"/>
      <point x="1013" y="1324" type="curve"/>
    </contour>
    <contour>
      <point x="816" y="100" type="curve" smooth="yes"/>
      <point x="752" y="100"/>
      <point x="695" y="108"/>
      <point x="645" y="123" type="curve"/>
      <point x="1095" y="1281" type="line"/>
      <point x="1254" y="1180"/>
      <point x="1322" y="977"/>
      <point x="1322" y="718" type="curve" smooth="yes"/>
      <point x="1322" y="353"/>
      <point x="1187" y="100"/>
    </contour>
  </outline>
</glyph>
<glyph name="germandbls" format="1">
  <advance width="1246"/>
  <unicode hex="00DF"/>
  <outline>
    <contour>
      <point x="830" y="-19" type="curve" smooth="yes"/>
      <point x="1030" y="-19"/>
      <point x="1146" y="102"/>
      <point x="1146" y="287" type="curve" smooth="yes"/>
      <point x="1146" y="581"/>
      <point x="752" y="670"/>
      <point x="752" y="790" type="curve" smooth="yes"/>
      <point x="752" y="885"/>
      <point x="971" y="1013"/>
      <point x="971" y="1218" type="curve" smooth="yes"/>
      <point x="971" y="1398"/>
      <point x="839" y="1530"/>
      <point x="613" y="1530" type="curve" smooth="yes"/>
      <point x="314" y="1530"/>
      <point x="179" y="1352"/>
      <point x="179" y="1059" type="curve" smooth="yes"/>
      <point x="179" y="1" type="line"/>
      <point x="328" y="1" type="line"/>
      <point x="328" y="1063" type="line" smooth="yes"/>
      <point x="328" y="1322"/>
      <point x="424" y="1415"/>
      <point x="616" y="1415" type="curve" smooth="yes"/>
      <point x="758" y="1415"/>
      <point x="825" y="1335"/>
      <point x="825" y="1221" type="curve" smooth="yes"/>
      <point x="825" y="1006"/>
      <point x="620" y="944"/>
      <point x="620" y="778" type="curve" smooth="yes"/>
      <point x="620" y="579"/>
      <point x="1001" y="501"/>
      <point x="1001" y="281" type="curve" smooth="yes"/>
      <point x="1001" y="195"/>
      <point x="953" y="99"/>
      <point x="816" y="99" type="curve" smooth="yes"/>
      <point x="698" y="99"/>
      <point x="589" y="140"/>
      <point x="531" y="171" type="curve"/>
      <point x="490" y="59" type="line"/>
      <point x="560" y="21"/>
      <point x="698" y="-19"/>
    </contour>
  </outline>
</glyph>
<glyph name="eth" format="1">
  <advance width="1272"/>
  <unicode hex="00F0"/>
  <outline>
    <contour>
      <point x="622" y="-24" type="curve" smooth="yes"/>
      <point x="960" y="-24"/>
      <point x="1115" y="207"/>
      <point x="1115" y="492" type="curve" smooth="yes"/>
      <point x="1115" y="627"/>
      <point x="1083" y="770"/>
      <point x="1034" y="870" type="curve" smooth="yes"/>
      <point x="969" y="999"/>
      <point x="871" y="1133"/>
      <point x="661" y="1357" type="curve"/>
      <point x="926" y="1456" type="line"/>
      <point x="881" y="1547" type="line"/>
      <point x="586" y="1434" type="line"/>
      <point x="421" y="1598" type="line"/>
      <point x="259" y="1598" type="line"/>
      <point x="479" y="1393" type="line"/>
      <point x="244" y="1301" type="line"/>
      <point x="288" y="1207" type="line"/>
      <point x="548" y="1309" type="line"/>
      <point x="761" y="1099"/>
      <point x="865" y="948"/>
      <point x="917" y="835" type="curve"/>
      <point x="863" y="884"/>
      <point x="783" y="974"/>
      <point x="613" y="974" type="curve" smooth="yes"/>
      <point x="333" y="974"/>
      <point x="130" y="778"/>
      <point x="130" y="487" type="curve" smooth="yes"/>
      <point x="130" y="224"/>
      <point x="293" y="-24"/>
    </contour>
    <contour>
      <point x="628" y="84" type="curve" smooth="yes"/>
      <point x="385" y="84"/>
      <point x="272" y="286"/>
      <point x="272" y="485" type="curve" smooth="yes"/>
      <point x="272" y="700"/>
      <point x="401" y="867"/>
      <point x="622" y="867" type="curve" smooth="yes"/>
      <point x="857" y="867"/>
      <point x="985" y="683"/>
      <point x="985" y="498" type="curve" smooth="yes"/>
      <point x="985" y="249"/>
      <point x="865" y="84"/>
    </contour>
  </outline>
</glyph>
<glyph name="divide" format="1">
  <advance width="1117"/>
  <unicode hex="00F7"/>
  <outline>
    <contour>
      <point x="466" y="35" type="line"/>
      <point x="640" y="35" type="line"/>
      <point x="640" y="223" type="line"/>
      <point x="466" y="223" type="line"/>
    </contour>
    <contour>
      <point x="85" y="509" type="line"/>
      <point x="1020" y="509" type="line"/>
      <point x="1020" y="634" type="line"/>
      <point x="85" y="634" type="line"/>
    </contour>
    <contour>
      <point x="466" y="893" type="line"/>
      <point x="642" y="893" type="line"/>
      <point x="642" y="1079" type="line"/>
      <point x="466" y="1079" type="line"/>
    </contour>
  </outline>
</glyph>
<glyph name="oslash" format="1">
  <advance width="1203"/>
  <unicode hex="00F8"/>
  <outline>
    <contour>
      <point x="271" y="-159" type="line"/>
      <point x="999" y="1197" type="line"/>
      <point x="930" y="1232" type="line"/>
      <point x="207" y="-123" type="line"/>
    </contour>
    <component base="o"/>
  </outline>
</glyph>
<glyph name="kgreenlandic" format="1">
  <advance width="1076"/>
  <unicode hex="0138"/>
  <outline>
    <contour>
      <point x="166" y="0" type="line"/>
      <point x="309" y="0" type="line"/>
      <point x="309" y="398" type="line"/>
      <point x="439" y="512" type="line"/>
      <point x="879" y="0" type="line"/>
      <point x="1035" y="0" type="line"/>
      <point x="1035" y="18" type="line"/>
      <point x="536" y="585" type="line"/>
      <point x="1012" y="1063" type="line"/>
      <point x="1012" y="1082" type="line"/>
      <point x="853" y="1082" type="line"/>
      <point x="303" y="526" type="line"/>
      <point x="309" y="739" type="line"/>
      <point x="309" y="1082" type="line"/>
      <point x="166" y="1082" type="line"/>
    </contour>
  </outline>
</glyph>
<glyph name="eng" format="1">
  <advance width="1186"/>
  <unicode hex="014B"/>
  <outline>
    <contour>
      <point x="313" y="882" type="curve"/>
      <point x="296" y="1082" type="line"/>
      <point x="173" y="1082" type="line"/>
      <point x="173" y="0" type="line"/>
      <point x="322" y="0" type="line"/>
      <point x="322" y="635" type="line" smooth="yes"/>
      <point x="322" y="820"/>
      <point x="404" y="995"/>
      <point x="653" y="995" type="curve" smooth="yes"/>
      <point x="829" y="995"/>
      <point x="881" y="871"/>
      <point x="881" y="683" type="curve" smooth="yes"/>
      <point x="881" y="-6" type="line" smooth="yes"/>
      <point x="880" y="-235"/>
      <point x="842" y="-307"/>
      <point x="486" y="-307" type="curve"/>
      <point x="492" y="-418" type="line"/>
      <point x="925" y="-417"/>
      <point x="1028" y="-307"/>
      <point x="1028" y="-16" type="curve" smooth="yes"/>
      <point x="1028" y="656" type="line" smooth="yes"/>
      <point x="1028" y="953"/>
      <point x="920" y="1104"/>
      <point x="677" y="1104" type="curve" smooth="yes"/>
      <point x="494" y="1104"/>
      <point x="375" y="1026"/>
    </contour>
  </outline>
</glyph>
<glyph name="OE" format="1">
  <advance width="2508"/>
  <unicode hex="0152"/>
  <outline>
    <contour>
      <point x="806" y="-20" type="curve" smooth="yes"/>
      <point x="1044" y="-20"/>
      <point x="1215" y="74"/>
      <point x="1312" y="229" type="curve"/>
      <point x="1312" y="0" type="line"/>
      <point x="2226" y="0" type="line"/>
      <point x="2236" y="116" type="line"/>
      <point x="1462" y="116" type="line"/>
      <point x="1462" y="692" type="line"/>
      <point x="2153" y="692" type="line"/>
      <point x="2153" y="808" type="line"/>
      <point x="1462" y="808" type="line"/>
      <point x="1462" y="1340" type="line"/>
      <point x="2221" y="1340" type="line"/>
      <point x="2227" y="1456" type="line"/>
      <point x="1312" y="1456" type="line"/>
      <point x="1312" y="1214" type="line"/>
      <point x="1214" y="1379"/>
      <point x="1039" y="1476"/>
      <point x="807" y="1476" type="curve" smooth="yes"/>
      <point x="362" y="1476"/>
      <point x="143" y="1177"/>
      <point x="143" y="719" type="curve" smooth="yes"/>
      <point x="143" y="273"/>
      <point x="351" y="-20"/>
    </contour>
    <contour>
      <point x="804" y="100" type="curve" smooth="yes"/>
      <point x="431" y="100"/>
      <point x="295" y="354"/>
      <point x="295" y="718" type="curve" smooth="yes"/>
      <point x="295" y="1101"/>
      <point x="445" y="1356"/>
      <point x="806" y="1356" type="curve" smooth="yes"/>
      <point x="1168" y="1356"/>
      <point x="1312" y="1098"/>
      <point x="1312" y="718" type="curve" smooth="yes"/>
      <point x="1312" y="354"/>
      <point x="1177" y="100"/>
    </contour>
  </outline>
</glyph>
<glyph name="florin" format="1">
  <advance width="985"/>
  <unicode hex="0192"/>
  <outline>
    <contour>
      <point x="95" y="-242" type="curve" smooth="yes"/>
      <point x="258" y="-242"/>
      <point x="375" y="-120"/>
      <point x="430" y="133" type="curve" smooth="yes"/>
      <point x="604" y="901" type="line"/>
      <point x="840" y="901" type="line"/>
      <point x="853" y="974" type="line"/>
      <point x="620" y="974" type="line"/>
      <point x="665" y="1219" type="line" smooth="yes"/>
      <point x="689" y="1347"/>
      <point x="726" y="1432"/>
      <point x="825" y="1432" type="curve" smooth="yes"/>
      <point x="896" y="1432"/>
      <point x="931" y="1381"/>
      <point x="932" y="1271" type="curve"/>
      <point x="1040" y="1271" type="line"/>
      <point x="1039" y="1456"/>
      <point x="942" y="1514"/>
      <point x="820" y="1514" type="curve" smooth="yes"/>
      <point x="645" y="1514"/>
      <point x="557" y="1400"/>
      <point x="521" y="1212" type="curve" smooth="yes"/>
      <point x="476" y="974" type="line"/>
      <point x="311" y="974" type="line"/>
      <point x="297" y="901" type="line"/>
      <point x="465" y="901" type="line"/>
      <point x="290" y="133" type="line"/>
      <point x="256" y="-24"/>
      <point x="262" y="-164"/>
      <point x="90" y="-164" type="curve" smooth="yes"/>
      <point x="63" y="-164"/>
      <point x="33" y="-161"/>
      <point x="-3" y="-154" type="curve"/>
      <point x="-19" y="-225" type="line"/>
      <point x="22" y="-236"/>
      <point x="60" y="-242"/>
    </contour>
  </outline>
</glyph>
<glyph name="apostrophemod" format="1">
  <advance width="643"/>
  <unicode hex="02BC"/>
  <outline>
    <contour>
      <point x="138" y="1176" type="curve"/>
      <point x="244" y="1176" type="line"/>
      <point x="244" y="1176"/>
      <point x="350" y="1547"/>
      <point x="360" y="1601" type="curve"/>
      <point x="207" y="1601" type="line"/>
      <point x="204" y="1574"/>
      <point x="138" y="1176"/>
    </contour>
  </outline>
</glyph>
<glyph name="circumflex" format="1">
  <advance width="870"/>
  <unicode hex="02C6"/>
  <outline>
    <contour>
      <point x="430" y="1082" type="move" name="_top"/>
    </contour>
    <contour>
      <point x="153" y="1252" type="line"/>
      <point x="272" y="1252" type="line"/>
      <point x="423" y="1488" type="line"/>
      <point x="573" y="1252" type="line"/>
      <point x="691" y="1252" type="line"/>
      <point x="501" y="1582" type="line"/>
      <point x="345" y="1582" type="line"/>
    </contour>
  </outline>
</glyph>
<glyph name="ring" format="1">
  <advance width="677"/>
  <unicode hex="02DA"/>
  <outline>
    <contour>
      <point x="331" y="1272" type="curve" smooth="yes"/>
      <point x="275" y="1272"/>
      <point x="234" y="1317"/>
      <point x="234" y="1374" type="curve" smooth="yes"/>
      <point x="234" y="1428"/>
      <point x="275" y="1474"/>
      <point x="331" y="1474" type="curve" smooth="yes"/>
      <point x="388" y="1474"/>
      <point x="431" y="1428"/>
      <point x="431" y="1374" type="curve" smooth="yes"/>
      <point x="431" y="1318"/>
      <point x="388" y="1272"/>
    </contour>
    <contour>
      <point x="331" y="1200" type="curve" smooth="yes"/>
      <point x="434" y="1200"/>
      <point x="513" y="1276"/>
      <point x="513" y="1375" type="curve" smooth="yes"/>
      <point x="513" y="1473"/>
      <point x="435" y="1549"/>
      <point x="331" y="1549" type="curve" smooth="yes"/>
      <point x="229" y="1549"/>
      <point x="151" y="1473"/>
      <point x="151" y="1375" type="curve" smooth="yes"/>
      <point x="151" y="1276"/>
      <point x="229" y="1200"/>
    </contour>
    <contour>
      <point x="331" y="1072" type="move" name="_top"/>
    </contour>
  </outline>
</glyph>
<glyph name="ogonek" format="1">
  <advance width="711"/>
  <unicode hex="02DB"/>
  <outline>
    <contour>
      <point x="393" y="-409" type="curve" smooth="yes"/>
      <point x="440" y="-409"/>
      <point x="494" y="-396"/>
      <point x="527" y="-381" type="curve"/>
      <point x="526" y="-295" type="line"/>
      <point x="505" y="-305"/>
      <point x="463" y="-318"/>
      <point x="425" y="-318" type="curve" smooth="yes"/>
      <point x="377" y="-318"/>
      <point x="336" y="-292"/>
      <point x="336" y="-231" type="curve" smooth="yes"/>
      <point x="336" y="-150"/>
      <point x="418" y="-48"/>
      <point x="490" y="2" type="curve"/>
      <point x="416" y="2" type="line"/>
      <point x="306" y="-51"/>
      <point x="217" y="-162"/>
      <point x="217" y="-266" type="curve" smooth="yes"/>
      <point x="217" y="-360"/>
      <point x="287" y="-409"/>
    </contour>
    <contour>
      <point x="449" y="0" type="move" name="_ogonek"/>
    </contour>
  </outline>
</glyph>
<glyph name="tilde" format="1">
  <advance width="996"/>
  <unicode hex="02DC"/>
  <outline>
    <contour>
      <point x="497" y="1072" type="move" name="_top"/>
    </contour>
    <contour>
      <point x="181" y="1308" type="curve"/>
      <point x="258" y="1308" type="line"/>
      <point x="264" y="1378"/>
      <point x="289" y="1407"/>
      <point x="324" y="1407" type="curve" smooth="yes"/>
      <point x="400" y="1407"/>
      <point x="524" y="1308"/>
      <point x="627" y="1308" type="curve" smooth="yes"/>
      <point x="699" y="1308"/>
      <point x="763" y="1356"/>
      <point x="763" y="1501" type="curve"/>
      <point x="683" y="1501" type="line"/>
      <point x="675" y="1434"/>
      <point x="654" y="1412"/>
      <point x="622" y="1412" type="curve" smooth="yes"/>
      <point x="557" y="1412"/>
      <point x="449" y="1502"/>
      <point x="333" y="1502" type="curve" smooth="yes"/>
      <point x="249" y="1502"/>
      <point x="181" y="1452"/>
    </contour>
  </outline>
</glyph>
<glyph name="hungarumlaut" format="1">
  <advance width="756"/>
  <unicode hex="02DD"/>
  <outline>
    <contour>
      <point x="301" y="1072" type="move" name="_top"/>
    </contour>
    <contour>
      <point x="144" y="1252" type="line"/>
      <point x="232" y="1252" type="line"/>
      <point x="450" y="1603" type="line"/>
      <point x="308" y="1603" type="line"/>
    </contour>
    <contour>
      <point x="399" y="1252" type="line"/>
      <point x="485" y="1252" type="line"/>
      <point x="726" y="1603" type="line"/>
      <point x="574" y="1603" type="line"/>
    </contour>
  </outline>
</glyph>
<glyph name="uni0307" format="1">
  <advance width="371"/>
  <unicode hex="0307"/>
  <outline>
    <contour>
      <point x="192" y="1349" type="curve" smooth="yes"/>
      <point x="261" y="1349"/>
      <point x="297" y="1385"/>
      <point x="297" y="1451" type="curve" smooth="yes"/>
      <point x="297" y="1515"/>
      <point x="261" y="1551"/>
      <point x="192" y="1551" type="curve" smooth="yes"/>
      <point x="123" y="1551"/>
      <point x="86" y="1515"/>
      <point x="86" y="1451" type="curve" smooth="yes"/>
      <point x="86" y="1385"/>
      <point x="123" y="1349"/>
    </contour>
  </outline>
</glyph>
<glyph name="dblgravecomb" format="1">
  <advance width="817"/>
  <unicode hex="030F"/>
  <outline>
    <contour>
      <point x="327" y="1252" type="line"/>
      <point x="413" y="1252" type="line"/>
      <point x="238" y="1603" type="line"/>
      <point x="86" y="1603" type="line"/>
    </contour>
    <contour>
      <point x="580" y="1252" type="line"/>
      <point x="668" y="1252" type="line"/>
      <point x="504" y="1603" type="line"/>
      <point x="361" y="1603" type="line"/>
    </contour>
    <contour>
      <point x="512" y="1072" type="move" name="_top"/>
    </contour>
  </outline>
</glyph>
<glyph name="breveinvertedcomb" format="1">
  <advance width="771"/>
  <unicode hex="0311"/>
  <outline>
    <contour>
      <point x="401" y="1072" type="move" name="_top"/>
    </contour>
    <contour>
      <point x="171" y="1284" type="curve"/>
      <point x="263" y="1284" type="line"/>
      <point x="263" y="1386"/>
      <point x="330" y="1429"/>
      <point x="396" y="1429" type="curve" smooth="yes"/>
      <point x="463" y="1429"/>
      <point x="536" y="1386"/>
      <point x="536" y="1284" type="curve"/>
      <point x="625" y="1284" type="line"/>
      <point x="625" y="1447"/>
      <point x="520" y="1518"/>
      <point x="396" y="1518" type="curve" smooth="yes"/>
      <point x="273" y="1518"/>
      <point x="171" y="1448"/>
    </contour>
  </outline>
</glyph>
<glyph name="pi" format="1">
  <advance width="1386"/>
  <unicode hex="03C0"/>
  <outline>
    <contour>
      <point x="1105" y="-11" type="curve" smooth="yes"/>
      <point x="1173" y="-11"/>
      <point x="1235" y="11"/>
      <point x="1273" y="45" type="curve"/>
      <point x="1273" y="144" type="line"/>
      <point x="1245" y="133"/>
      <point x="1195" y="115"/>
      <point x="1153" y="115" type="curve" smooth="yes"/>
      <point x="1062" y="115"/>
      <point x="1018" y="202"/>
      <point x="1018" y="399" type="curve" smooth="yes"/>
      <point x="1018" y="526"/>
      <point x="1034" y="722"/>
      <point x="1065" y="948" type="curve"/>
      <point x="1306" y="948" type="line"/>
      <point x="1306" y="1082" type="line"/>
      <point x="427" y="1082" type="line" smooth="yes"/>
      <point x="194" y="1082"/>
      <point x="127" y="997"/>
      <point x="127" y="777" type="curve"/>
      <point x="209" y="777" type="line"/>
      <point x="221" y="890"/>
      <point x="261" y="948"/>
      <point x="350" y="948" type="curve" smooth="yes"/>
      <point x="474" y="948" type="line"/>
      <point x="397" y="376" type="line" smooth="yes"/>
      <point x="367" y="155"/>
      <point x="233" y="94"/>
      <point x="123" y="94" type="curve"/>
      <point x="123" y="4" type="line"/>
      <point x="445" y="4"/>
      <point x="505" y="111"/>
      <point x="522" y="333" type="curve" smooth="yes"/>
      <point x="570" y="948" type="line"/>
      <point x="960" y="948" type="line"/>
      <point x="922" y="681"/>
      <point x="884" y="438"/>
      <point x="884" y="278" type="curve" smooth="yes"/>
      <point x="884" y="87"/>
      <point x="941" y="-11"/>
    </contour>
  </outline>
</glyph>
<glyph name="endash" format="1">
  <advance width="1322"/>
  <unicode hex="2013"/>
  <outline>
    <contour>
      <point x="109" y="553" type="line"/>
      <point x="1213" y="553" type="line"/>
      <point x="1213" y="660" type="line"/>
      <point x="109" y="660" type="line"/>
    </contour>
  </outline>
</glyph>
<glyph name="quoteleft" format="1">
  <advance width="523"/>
  <unicode hex="2018"/>
  <outline>
    <contour>
      <point x="173" y="1014" type="line"/>
      <point x="330" y="1014" type="line"/>
      <point x="379" y="1485" type="line"/>
      <point x="278" y="1485" type="line"/>
    </contour>
  </outline>
</glyph>
<glyph name="quoteright" format="1">
  <advance width="523"/>
  <unicode hex="2019"/>
  <outline>
    <contour>
      <point x="173" y="1014" type="line"/>
      <point x="275" y="1014" type="line"/>
      <point x="379" y="1485" type="line"/>
      <point x="222" y="1485" type="line"/>
    </contour>
  </outline>
</glyph>
<glyph name="quotesinglbase" format="1">
  <advance width="437"/>
  <unicode hex="201A"/>
  <outline>
    <contour>
      <point x="97" y="-289" type="line"/>
      <point x="189" y="-289" type="line"/>
      <point x="297" y="168" type="line"/>
      <point x="157" y="168" type="line"/>
    </contour>
  </outline>
</glyph>
<glyph name="quotedblleft" format="1">
  <advance width="883"/>
  <unicode hex="201C"/>
  <outline>
    <contour>
      <point x="173" y="1014" type="line"/>
      <point x="330" y="1014" type="line"/>
      <point x="379" y="1485" type="line"/>
      <point x="278" y="1485" type="line"/>
    </contour>
    <contour>
      <point x="502" y="1014" type="line"/>
      <point x="659" y="1014" type="line"/>
      <point x="709" y="1485" type="line"/>
      <point x="607" y="1485" type="line"/>
    </contour>
  </outline>
</glyph>
<glyph name="quotedblright" format="1">
  <advance width="883"/>
  <unicode hex="201D"/>
  <outline>
    <contour>
      <point x="173" y="1014" type="line"/>
      <point x="275" y="1014" type="line"/>
      <point x="379" y="1485" type="line"/>
      <point x="222" y="1485" type="line"/>
    </contour>
    <contour>
      <point x="502" y="1014" type="line"/>
      <point x="604" y="1014" type="line"/>
      <point x="709" y="1485" type="line"/>
      <point x="552" y="1485" type="line"/>
    </contour>
  </outline>
</glyph>
<glyph name="quotedblbase" format="1">
  <advance width="698"/>
  <unicode hex="201E"/>
  <outline>
    <contour>
      <point x="111" y="-289" type="line"/>
      <point x="200" y="-289" type="line"/>
      <point x="300" y="168" type="line"/>
      <point x="166" y="168" type="line"/>
    </contour>
    <contour>
      <point x="386" y="-289" type="line"/>
      <point x="471" y="-289" type="line"/>
      <point x="577" y="168" type="line"/>
      <point x="438" y="168" type="line"/>
    </contour>
  </outline>
</glyph>
<glyph name="dagger" format="1">
  <advance width="1019"/>
  <unicode hex="2020"/>
  <outline>
    <contour>
      <point x="451" y="109" type="line"/>
      <point x="550" y="109" type="line"/>
      <point x="550" y="1003" type="line"/>
      <point x="836" y="1003" type="line"/>
      <point x="836" y="1084" type="line"/>
      <point x="546" y="1084" type="line"/>
      <point x="546" y="1476" type="line"/>
      <point x="451" y="1476" type="line"/>
      <point x="451" y="1084" type="line"/>
      <point x="166" y="1084" type="line"/>
      <point x="166" y="1003" type="line"/>
      <point x="451" y="1003" type="line"/>
    </contour>
  </outline>
</glyph>
<glyph name="daggerdbl" format="1">
  <advance width="1041"/>
  <unicode hex="2021"/>
  <outline>
    <contour>
      <point x="448" y="95" type="line"/>
      <point x="547" y="95" type="line"/>
      <point x="547" y="469" type="line"/>
      <point x="826" y="469" type="line"/>
      <point x="826" y="547" type="line"/>
      <point x="548" y="547" type="line"/>
      <point x="548" y="993" type="line"/>
      <point x="827" y="993" type="line"/>
      <point x="827" y="1073" type="line"/>
      <point x="543" y="1073" type="line"/>
      <point x="543" y="1466" type="line"/>
      <point x="448" y="1466" type="line"/>
      <point x="448" y="1073" type="line"/>
      <point x="165" y="1073" type="line"/>
      <point x="165" y="993" type="line"/>
      <point x="448" y="993" type="line"/>
      <point x="448" y="547" type="line"/>
      <point x="165" y="547" type="line"/>
      <point x="165" y="469" type="line"/>
      <point x="448" y="469" type="line"/>
    </contour>
  </outline>
</glyph>
<glyph name="perthousand" format="1">
  <advance width="2460"/>
  <unicode hex="2030"/>
  <outline>
    <contour>
      <point x="2007" y="82" type="curve" smooth="yes"/>
      <point x="1847" y="82"/>
      <point x="1798" y="206"/>
      <point x="1798" y="375" type="curve" smooth="yes"/>
      <point x="1798" y="540"/>
      <point x="1847" y="665"/>
      <point x="2007" y="665" type="curve" smooth="yes"/>
      <point x="2166" y="665"/>
      <point x="2214" y="546"/>
      <point x="2214" y="375" type="curve" smooth="yes"/>
      <point x="2214" y="210"/>
      <point x="2167" y="82"/>
    </contour>
    <contour>
      <point x="2005" y="-8" type="curve" smooth="yes"/>
      <point x="2230" y="-8"/>
      <point x="2324" y="159"/>
      <point x="2324" y="374" type="curve" smooth="yes"/>
      <point x="2324" y="593"/>
      <point x="2233" y="755"/>
      <point x="2005" y="755" type="curve" smooth="yes"/>
      <point x="1783" y="755"/>
      <point x="1688" y="590"/>
      <point x="1688" y="374" type="curve" smooth="yes"/>
      <point x="1688" y="159"/>
      <point x="1779" y="-8"/>
    </contour>
    <component base="percent" xOffset="9"/>
  </outline>
</glyph>
<glyph name="fraction" format="1">
  <advance width="1106"/>
  <unicode hex="2044"/>
  <outline>
    <contour>
      <point x="154" y="0" type="line"/>
      <point x="280" y="0" type="line"/>
      <point x="955" y="1509" type="line"/>
      <point x="832" y="1509" type="line"/>
    </contour>
  </outline>
</glyph>
<glyph name="uni2074" format="1">
  <advance width="706"/>
  <unicode hex="2074"/>
  <outline>
    <contour>
      <point x="430" y="635" type="line"/>
      <point x="538" y="635" type="line"/>
      <point x="537" y="852" type="line"/>
      <point x="659" y="852" type="line"/>
      <point x="661" y="936" type="line"/>
      <point x="540" y="936" type="line"/>
      <point x="540" y="1499" type="line"/>
      <point x="423" y="1499" type="line"/>
      <point x="69" y="942" type="line"/>
      <point x="69" y="852" type="line"/>
      <point x="430" y="852" type="line"/>
    </contour>
    <contour>
      <point x="181" y="936" type="line"/>
      <point x="431" y="1361" type="line"/>
      <point x="430" y="936" type="line"/>
    </contour>
  </outline>
</glyph>
<glyph name="uni2113" format="1">
  <advance width="1170"/>
  <unicode hex="2113"/>
  <outline>
    <contour>
      <point x="546" y="-20" type="curve" smooth="yes"/>
      <point x="759" y="-20"/>
      <point x="901" y="98"/>
      <point x="901" y="98" type="curve"/>
      <point x="879" y="193" type="line"/>
      <point x="776" y="133"/>
      <point x="689" y="99"/>
      <point x="606" y="99" type="curve" smooth="yes"/>
      <point x="513" y="99"/>
      <point x="472" y="148"/>
      <point x="472" y="245" type="curve" smooth="yes"/>
      <point x="472" y="291"/>
      <point x="481" y="349"/>
      <point x="498" y="417" type="curve" smooth="yes"/>
      <point x="547" y="617" type="line"/>
      <point x="844" y="865" type="line" smooth="yes"/>
      <point x="1085" y="1065"/>
      <point x="1177" y="1191"/>
      <point x="1177" y="1401" type="curve" smooth="yes"/>
      <point x="1177" y="1598"/>
      <point x="1045" y="1681"/>
      <point x="907" y="1682" type="curve" smooth="yes"/>
      <point x="783" y="1682"/>
      <point x="654" y="1626"/>
      <point x="592" y="1396" type="curve" smooth="yes"/>
      <point x="384" y="629" type="line"/>
      <point x="83" y="400" type="line"/>
      <point x="125" y="334" type="line"/>
      <point x="351" y="506" type="line"/>
      <point x="322" y="404"/>
      <point x="308" y="318"/>
      <point x="308" y="248" type="curve" smooth="yes"/>
      <point x="308" y="57"/>
      <point x="401" y="-20"/>
    </contour>
    <contour>
      <point x="582" y="761" type="curve"/>
      <point x="709" y="1270" type="line" smooth="yes"/>
      <point x="754" y="1450"/>
      <point x="827" y="1565"/>
      <point x="934" y="1565" type="curve" smooth="yes"/>
      <point x="1035" y="1565"/>
      <point x="1077" y="1488"/>
      <point x="1077" y="1400" type="curve" smooth="yes"/>
      <point x="1077" y="1244"/>
      <point x="996" y="1109"/>
      <point x="809" y="951" type="curve" smooth="yes"/>
      <point x="808" y="951"/>
      <point x="606" y="782"/>
    </contour>
  </outline>
</glyph>
<glyph name="trademark" format="1">
  <advance width="2086"/>
  <unicode hex="2122"/>
  <outline>
    <contour>
      <point x="938" y="525" type="line"/>
      <point x="1037" y="525" type="line"/>
      <point x="1050" y="1299" type="line"/>
      <point x="1374" y="632" type="line"/>
      <point x="1449" y="632" type="line"/>
      <point x="1764" y="1294" type="line"/>
      <point x="1776" y="525" type="line"/>
      <point x="1876" y="525" type="line"/>
      <point x="1853" y="1456" type="line"/>
      <point x="1745" y="1456" type="line"/>
      <point x="1412" y="760" type="line"/>
      <point x="1070" y="1456" type="line"/>
      <point x="960" y="1456" type="line"/>
    </contour>
    <contour>
      <point x="390" y="525" type="line"/>
      <point x="500" y="525" type="line"/>
      <point x="500" y="1367" type="line"/>
      <point x="791" y="1367" type="line"/>
      <point x="791" y="1456" type="line"/>
      <point x="89" y="1456" type="line"/>
      <point x="89" y="1367" type="line"/>
      <point x="390" y="1367" type="line"/>
    </contour>
  </outline>
</glyph>
<glyph name="uni2126" format="1">
  <advance width="1734"/>
  <unicode hex="2126"/>
  <outline>
    <contour>
      <point x="116" y="0" type="line"/>
      <point x="785" y="0" type="line"/>
      <point x="785" y="127" type="line"/>
      <point x="536" y="214"/>
      <point x="304" y="437"/>
      <point x="304" y="763" type="curve" smooth="yes"/>
      <point x="304" y="1075"/>
      <point x="531" y="1329"/>
      <point x="871" y="1329" type="curve" smooth="yes"/>
      <point x="1203" y="1329"/>
      <point x="1429" y="1074"/>
      <point x="1429" y="763" type="curve" smooth="yes"/>
      <point x="1429" y="437"/>
      <point x="1192" y="215"/>
      <point x="957" y="127" type="curve"/>
      <point x="957" y="0" type="line"/>
      <point x="1619" y="0" type="line"/>
      <point x="1619" y="127" type="line"/>
      <point x="1066" y="127" type="line"/>
      <point x="1080" y="75" type="line"/>
      <point x="1349" y="161"/>
      <point x="1613" y="399"/>
      <point x="1613" y="794" type="curve" smooth="yes"/>
      <point x="1613" y="1149"/>
      <point x="1329" y="1479"/>
      <point x="871" y="1479" type="curve" smooth="yes"/>
      <point x="408" y="1479"/>
      <point x="121" y="1148"/>
      <point x="121" y="792" type="curve" smooth="yes"/>
      <point x="121" y="398"/>
      <point x="384" y="161"/>
      <point x="661" y="75" type="curve"/>
      <point x="675" y="127" type="line"/>
      <point x="116" y="127" type="line"/>
    </contour>
  </outline>
</glyph>
<glyph name="estimated" format="1">
  <advance width="1168"/>
  <unicode hex="212E"/>
  <outline>
    <contour>
      <point x="620" y="272" type="curve" smooth="yes"/>
      <point x="807" y="272"/>
      <point x="930" y="353"/>
      <point x="1020" y="460" type="curve"/>
      <point x="974" y="506" type="line"/>
      <point x="885" y="411"/>
      <point x="783" y="338"/>
      <point x="620" y="338" type="curve" smooth="yes"/>
      <point x="412" y="338"/>
      <point x="304" y="511"/>
      <point x="303" y="759" type="curve"/>
      <point x="1027" y="759" type="line"/>
      <point x="1027" y="1073"/>
      <point x="894" y="1282"/>
      <point x="604" y="1282" type="curve" smooth="yes"/>
      <point x="311" y="1282"/>
      <point x="103" y="1066"/>
      <point x="103" y="777" type="curve" smooth="yes"/>
      <point x="103" y="489"/>
      <point x="273" y="272"/>
    </contour>
    <contour>
      <point x="305" y="832" type="line"/>
      <point x="318" y="1068"/>
      <point x="453" y="1228"/>
      <point x="609" y="1228" type="curve" smooth="yes"/>
      <point x="799" y="1228"/>
      <point x="923" y="1043"/>
      <point x="923" y="832" type="curve"/>
    </contour>
  </outline>
</glyph>
<glyph name="uni2206" format="1">
  <advance width="1311"/>
  <unicode hex="2206"/>
  <outline>
    <contour>
      <point x="81" y="0" type="line"/>
      <point x="1232" y="0" type="line"/>
      <point x="1232" y="84" type="line"/>
      <point x="732" y="1526" type="line"/>
      <point x="582" y="1526" type="line"/>
      <point x="81" y="84" type="line"/>
    </contour>
    <contour>
      <point x="234" y="145" type="line"/>
      <point x="618" y="1242" type="line"/>
      <point x="650" y="1359" type="line"/>
      <point x="684" y="1242" type="line"/>
      <point x="1069" y="145" type="line"/>
    </contour>
  </outline>
</glyph>
<glyph name="product" format="1">
  <advance width="1497"/>
  <unicode hex="220F"/>
  <outline>
    <contour>
      <point x="208" y="0" type="line"/>
      <point x="349" y="0" type="line"/>
      <point x="349" y="1354" type="line"/>
      <point x="1175" y="1354" type="line"/>
      <point x="1175" y="0" type="line"/>
      <point x="1316" y="0" type="line"/>
      <point x="1316" y="1483" type="line"/>
      <point x="208" y="1483" type="line"/>
    </contour>
  </outline>
</glyph>
<glyph name="summation" format="1">
  <advance width="1174"/>
  <unicode hex="2211"/>
  <outline>
    <contour>
      <point x="90" y="-267" type="line"/>
      <point x="1095" y="-267" type="line"/>
      <point x="1095" y="-126" type="line"/>
      <point x="276" y="-126" type="line"/>
      <point x="831" y="615" type="line"/>
      <point x="297" y="1364" type="line"/>
      <point x="1053" y="1364" type="line"/>
      <point x="1053" y="1496" type="line"/>
      <point x="112" y="1496" type="line"/>
      <point x="112" y="1407" type="line"/>
      <point x="644" y="615" type="line"/>
      <point x="90" y="-182" type="line"/>
    </contour>
  </outline>
</glyph>
<glyph name="minus" format="1">
  <advance width="1137"/>
  <unicode hex="2212"/>
  <outline>
    <contour>
      <point x="89" y="547" type="line"/>
      <point x="1040" y="547" type="line"/>
      <point x="1040" y="672" type="line"/>
      <point x="89" y="672" type="line"/>
    </contour>
  </outline>
</glyph>
<glyph name="radical" format="1">
  <advance width="1188"/>
  <unicode hex="221A"/>
  <outline>
    <contour>
      <point x="574" y="-163" type="line"/>
      <point x="693" y="-163" type="line"/>
      <point x="1138" y="1692" type="line"/>
      <point x="1025" y="1692" type="line"/>
      <point x="948" y="1379"/>
      <point x="697" y="365"/>
      <point x="620" y="53" type="curve"/>
      <point x="529" y="337"/>
      <point x="423" y="607"/>
      <point x="324" y="885" type="curve"/>
      <point x="71" y="827" type="line"/>
      <point x="85" y="731" type="line"/>
      <point x="229" y="762" type="line"/>
    </contour>
  </outline>
</glyph>
<glyph name="infinity" format="1">
  <advance width="1687"/>
  <unicode hex="221E"/>
  <outline>
    <contour>
      <point x="437" y="256" type="curve" smooth="yes"/>
      <point x="590" y="256"/>
      <point x="714" y="357"/>
      <point x="845" y="534" type="curve"/>
      <point x="987" y="342"/>
      <point x="1105" y="256"/>
      <point x="1247" y="256" type="curve" smooth="yes"/>
      <point x="1447" y="256"/>
      <point x="1594" y="409"/>
      <point x="1594" y="632" type="curve" smooth="yes"/>
      <point x="1594" y="849"/>
      <point x="1465" y="1000"/>
      <point x="1249" y="1000" type="curve" smooth="yes"/>
      <point x="1091" y="1000"/>
      <point x="970" y="898"/>
      <point x="842" y="719" type="curve"/>
      <point x="707" y="901"/>
      <point x="586" y="1000"/>
      <point x="433" y="1000" type="curve" smooth="yes"/>
      <point x="235" y="1000"/>
      <point x="87" y="851"/>
      <point x="87" y="649" type="curve" smooth="yes"/>
      <point x="87" y="428"/>
      <point x="220" y="256"/>
    </contour>
    <contour>
      <point x="439" y="364" type="curve" smooth="yes"/>
      <point x="289" y="364"/>
      <point x="189" y="485"/>
      <point x="189" y="629" type="curve" smooth="yes"/>
      <point x="189" y="777"/>
      <point x="284" y="891"/>
      <point x="432" y="891" type="curve" smooth="yes"/>
      <point x="570" y="891"/>
      <point x="678" y="793"/>
      <point x="782" y="623" type="curve"/>
      <point x="677" y="464"/>
      <point x="568" y="364"/>
    </contour>
    <contour>
      <point x="1249" y="364" type="curve" smooth="yes"/>
      <point x="1132" y="364"/>
      <point x="1036" y="451"/>
      <point x="905" y="634" type="curve"/>
      <point x="1005" y="788"/>
      <point x="1112" y="891"/>
      <point x="1245" y="891" type="curve" smooth="yes"/>
      <point x="1386" y="891"/>
      <point x="1482" y="788"/>
      <point x="1482" y="654" type="curve" smooth="yes"/>
      <point x="1482" y="487"/>
      <point x="1400" y="364"/>
    </contour>
  </outline>
</glyph>
<glyph name="integral" format="1">
  <advance width="879"/>
  <unicode hex="222B"/>
  <outline>
    <contour>
      <point x="297" y="-416" type="curve" smooth="yes"/>
      <point x="481" y="-416"/>
      <point x="552" y="-282"/>
      <point x="552" y="-36" type="curve" smooth="yes"/>
      <point x="552" y="1149" type="line" smooth="yes"/>
      <point x="552" y="1331"/>
      <point x="576" y="1415"/>
      <point x="693" y="1415" type="curve" smooth="yes"/>
      <point x="720" y="1415"/>
      <point x="750" y="1410"/>
      <point x="785" y="1399" type="curve"/>
      <point x="785" y="1490" type="line"/>
      <point x="739" y="1500"/>
      <point x="699" y="1505"/>
      <point x="665" y="1505" type="curve" smooth="yes"/>
      <point x="498" y="1505"/>
      <point x="437" y="1389"/>
      <point x="437" y="1148" type="curve" smooth="yes"/>
      <point x="437" y="-44" type="line" smooth="yes"/>
      <point x="437" y="-216"/>
      <point x="411" y="-322"/>
      <point x="278" y="-322" type="curve" smooth="yes"/>
      <point x="251" y="-322"/>
      <point x="218" y="-318"/>
      <point x="182" y="-308" type="curve"/>
      <point x="182" y="-402" type="line"/>
      <point x="225" y="-412"/>
      <point x="263" y="-416"/>
    </contour>
  </outline>
</glyph>
<glyph name="approxequal" format="1">
  <advance width="1209"/>
  <unicode hex="2248"/>
  <outline>
    <contour>
      <point x="870" y="455" type="curve" smooth="yes"/>
      <point x="990" y="455"/>
      <point x="1060" y="526"/>
      <point x="1092" y="661" type="curve"/>
      <point x="1040" y="720" type="line"/>
      <point x="1016" y="616"/>
      <point x="949" y="555"/>
      <point x="869" y="555" type="curve" smooth="yes"/>
      <point x="806" y="555"/>
      <point x="722" y="593"/>
      <point x="625" y="638" type="curve" smooth="yes"/>
      <point x="519" y="688"/>
      <point x="443" y="719"/>
      <point x="360" y="719" type="curve" smooth="yes"/>
      <point x="239" y="719"/>
      <point x="156" y="642"/>
      <point x="117" y="513" type="curve"/>
      <point x="167" y="449" type="line"/>
      <point x="202" y="555"/>
      <point x="275" y="617"/>
      <point x="361" y="617" type="curve" smooth="yes"/>
      <point x="430" y="617"/>
      <point x="508" y="582"/>
      <point x="601" y="539" type="curve" smooth="yes"/>
      <point x="705" y="489"/>
      <point x="793" y="455"/>
    </contour>
    <contour>
      <point x="870" y="806" type="curve" smooth="yes"/>
      <point x="990" y="806"/>
      <point x="1060" y="877"/>
      <point x="1092" y="1012" type="curve"/>
      <point x="1040" y="1070" type="line"/>
      <point x="1016" y="967"/>
      <point x="949" y="906"/>
      <point x="869" y="906" type="curve" smooth="yes"/>
      <point x="806" y="906"/>
      <point x="722" y="944"/>
      <point x="625" y="989" type="curve" smooth="yes"/>
      <point x="519" y="1039"/>
      <point x="443" y="1069"/>
      <point x="360" y="1069" type="curve" smooth="yes"/>
      <point x="239" y="1069"/>
      <point x="156" y="993"/>
      <point x="117" y="864" type="curve"/>
      <point x="167" y="800" type="line"/>
      <point x="202" y="906"/>
      <point x="275" y="968"/>
      <point x="361" y="968" type="curve" smooth="yes"/>
      <point x="430" y="968"/>
      <point x="508" y="933"/>
      <point x="601" y="890" type="curve" smooth="yes"/>
      <point x="705" y="840"/>
      <point x="793" y="806"/>
    </contour>
  </outline>
</glyph>
<glyph name="notequal" format="1">
  <advance width="1117"/>
  <unicode hex="2260"/>
  <outline>
    <contour>
      <point x="210" y="61" type="line"/>
      <point x="300" y="49" type="line"/>
      <point x="455" y="361" type="line"/>
      <point x="1002" y="361" type="line"/>
      <point x="998" y="464" type="line"/>
      <point x="501" y="464" type="line"/>
      <point x="679" y="801" type="line"/>
      <point x="1002" y="801" type="line"/>
      <point x="995" y="903" type="line"/>
      <point x="723" y="903" type="line"/>
      <point x="860" y="1197" type="line"/>
      <point x="769" y="1206" type="line"/>
      <point x="617" y="903" type="line"/>
      <point x="85" y="903" type="line"/>
      <point x="91" y="801" type="line"/>
      <point x="571" y="801" type="line"/>
      <point x="399" y="465" type="line"/>
      <point x="85" y="465" type="line"/>
      <point x="91" y="361" type="line"/>
      <point x="346" y="361" type="line"/>
    </contour>
  </outline>
</glyph>
<glyph name="lessequal" format="1">
  <advance width="1215"/>
  <unicode hex="2264"/>
  <outline>
    <contour>
      <point x="1062" y="238" type="line"/>
      <point x="1062" y="358" type="line"/>
      <point x="312" y="758" type="line"/>
      <point x="1060" y="1184" type="line"/>
      <point x="1060" y="1305" type="line"/>
      <point x="152" y="793" type="line"/>
      <point x="152" y="721" type="line"/>
    </contour>
    <contour>
      <point x="134" y="4" type="line"/>
      <point x="1078" y="4" type="line"/>
      <point x="1078" y="110" type="line"/>
      <point x="134" y="111" type="line"/>
    </contour>
  </outline>
</glyph>
<glyph name="greaterequal" format="1">
  <advance width="1213"/>
  <unicode hex="2265"/>
  <outline>
    <contour>
      <point x="164" y="240" type="line"/>
      <point x="1049" y="723" type="line"/>
      <point x="1049" y="793" type="line"/>
      <point x="168" y="1308" type="line"/>
      <point x="168" y="1185" type="line"/>
      <point x="925" y="758" type="line"/>
      <point x="164" y="360" type="line"/>
    </contour>
    <contour>
      <point x="128" y="10" type="line"/>
      <point x="1072" y="10" type="line"/>
      <point x="1072" y="126" type="line"/>
      <point x="128" y="124" type="line"/>
    </contour>
  </outline>
</glyph>
<glyph name="caron.alt" format="1">
  <advance width="776"/>
  <outline>
    <contour>
      <point x="503" y="1173" type="line"/>
      <point x="613" y="1173" type="line"/>
      <point x="698" y="1536" type="line"/>
      <point x="548" y="1536" type="line"/>
    </contour>
    <contour>
      <point x="282" y="1082" type="move" name="_caron.alt"/>
    </contour>
  </outline>
</glyph>
<glyph name="dotlessj" format="1">
  <advance width="555"/>
  <outline>
    <contour>
      <point x="40" y="-361" type="line"/>
      <point x="99" y="-355" type="line"/>
      <point x="292" y="-334"/>
      <point x="381" y="-263"/>
      <point x="381" y="-15" type="curve" smooth="yes"/>
      <point x="381" y="1082" type="line"/>
      <point x="233" y="1082" type="line"/>
      <point x="233" y="34" type="line" smooth="yes"/>
      <point x="233" y="-160"/>
      <point x="230" y="-211"/>
      <point x="78" y="-231" type="curve" smooth="yes"/>
      <point x="24" y="-241" type="line"/>
    </contour>
  </outline>
</glyph>
<glyph name="middot" format="1">
  <advance width="528"/>
  <outline>
    <contour>
      <point x="273" y="633" type="move" name="_mid"/>
    </contour>
    <component base="period" xOffset="-14" yOffset="541"/>
  </outline>
</glyph>
